<svg xmlns="http://www.w3.org/2000/svg" fill="none" height="16" viewBox="0 0 16 16" width="16"><path clip-rule="evenodd" d="m14 3.72076v6.27924c0 2.2448-4.79772 4.473-5.81278 4.9193-.12158.0535-.25286.0535-.37444 0-1.01506-.4463-5.81278-2.6745-5.81278-4.9193v-6.27924c0-.43043.27543-.81257.68377-.94868l5.15812-1.71938c.10263-.03421.21359-.03421.31622 0l5.15809 1.71938c.4084.13611.6838.51825.6838.94868zm-4 2.27924c0 1.10457-.89543 2-2 2s-2-.89543-2-2 .89543-2 2-2 2 .89543 2 2zm1.2672 4.4752c.1369.1729.1153.4183-.0449.5698-.9505.8992-2.49836 1.6339-3.03335 1.8728-.12128.0542-.25662.0542-.3779 0-.53208-.2376-2.06607-.9656-3.01779-1.8582-.15283-.1433-.18327-.3737-.06564-.547.60537-.89237 1.70918-1.5126 3.20234-1.5126 1.47098 0 2.65374.61176 3.33724 1.4752z" fill="#f55dae" fill-rule="evenodd"/></svg>