<svg fill="none" xmlns="http://www.w3.org/2000/svg" viewBox="247.31 173.01 903.27 954.76">
				<path vector-effect="non-scaling-stroke" d="M520.419 509.354C523.109 509.865 525.8 510.444 528.491 511.159L736.307 566.877C771.386 576.277 798.802 603.693 808.202 638.772L834.936 738.525" stroke="#E8E8E8" stroke-width="2" stroke-miterlimit="10" stroke-linecap="round" stroke-linejoin="round"></path>
				<path vector-effect="non-scaling-stroke" d="M520.418 509.355C487.757 503.395 453.972 513.748 430.234 537.486L278.101 689.619C252.422 715.299 242.375 752.727 251.775 787.874L307.492 995.691C316.892 1030.77 344.308 1058.19 379.387 1067.59L587.203 1123.3C622.282 1132.7 659.745 1122.69 685.458 1096.98L837.591 944.844C863.271 919.165 873.317 881.735 863.918 846.589L834.969 738.56" stroke="#907AFF" stroke-width="2" stroke-miterlimit="10" stroke-linecap="round" stroke-linejoin="round"></path>
				<path vector-effect="non-scaling-stroke" d="M520.419 509.356L492.458 252.531C486.532 198.38 541.466 158.159 591.36 180.126L1107.36 407.525C1157.18 429.492 1164.58 497.163 1120.61 529.347L834.97 738.492" stroke="#54DE62" stroke-width="2" stroke-miterlimit="10" stroke-linecap="round" stroke-linejoin="round"></path>
				<path vector-effect="non-scaling-stroke" d="M520.419 509.355L553.488 813.042C559.414 867.193 621.67 894.643 665.638 862.459L834.936 738.457" stroke="#E8E8E8" stroke-width="2" stroke-miterlimit="10" stroke-linecap="round" stroke-linejoin="round"></path>
				<path vector-effect="non-scaling-stroke" d="M841.004 744.592C844.356 741.24 844.356 735.806 841.004 732.453C837.652 729.101 832.217 729.101 828.865 732.453C825.513 735.806 825.513 741.24 828.865 744.592C832.217 747.945 837.652 747.945 841.004 744.592Z" fill="#E8E8E8"></path>
				<path vector-effect="non-scaling-stroke" d="M526.758 515.694C530.26 512.193 530.26 506.516 526.758 503.015C523.257 499.514 517.581 499.514 514.08 503.015C510.579 506.516 510.579 512.193 514.08 515.694C517.581 519.195 523.257 519.195 526.758 515.694Z" fill="#E8E8E8"></path>
			</svg>