<svg width="57" height="46" viewBox="0 0 57 46" fill="none" xmlns="http://www.w3.org/2000/svg">
                    <path d="M22.0861 5.95105L14.3565 0C4.73398 9.32867 0.00158691 23.4825 0.00158691 32.1678C0.00158691 41.6573 5.68046 46 12.1481 46C18.9312 46 23.9791 40.5315 23.9791 33.6154C23.9791 27.986 20.6664 24.1259 15.4607 22.1958C15.6185 17.3706 18.6157 10.6154 22.0861 5.95105ZM54.1086 5.95105L46.3791 0C36.7565 9.32867 32.0241 23.4825 32.0241 32.1678C32.0241 41.6573 37.703 46 44.1706 46C50.9537 46 56.0016 40.5315 56.0016 33.6154C56.0016 27.986 52.6889 24.1259 47.4833 22.1958C47.641 17.3706 50.6382 10.6154 54.1086 5.95105Z" fill="#54DE62"></path>
                  </svg>