<svg id="wave" style="transform:rotate(0deg); transition: 0.3s" viewBox="0 0 1440 100" version="1.1" xmlns="http://www.w3.org/2000/svg"><defs><linearGradient id="sw-gradient-0" x1="0" x2="0" y1="1" y2="0"><stop stop-color="rgba(255, 245, 241, 1)" offset="0%"></stop><stop stop-color="rgba(255, 245, 241, 1)" offset="100%"></stop></linearGradient></defs><path style="transform:translate(0, 0px); opacity:1" fill="url(#sw-gradient-0)" d="M0,0L60,3.3C120,7,240,13,360,25C480,37,600,53,720,58.3C840,63,960,57,1080,48.3C1200,40,1320,30,1440,31.7C1560,33,1680,47,1800,55C1920,63,2040,67,2160,71.7C2280,77,2400,83,2520,75C2640,67,2760,43,2880,36.7C3000,30,3120,40,3240,45C3360,50,3480,50,3600,43.3C3720,37,3840,23,3960,23.3C4080,23,4200,37,4320,48.3C4440,60,4560,70,4680,73.3C4800,77,4920,73,5040,71.7C5160,70,5280,70,5400,68.3C5520,67,5640,63,5760,66.7C5880,70,6000,80,6120,83.3C6240,87,6360,83,6480,75C6600,67,6720,53,6840,50C6960,47,7080,53,7200,55C7320,57,7440,53,7560,53.3C7680,53,7800,57,7920,63.3C8040,70,8160,80,8280,78.3C8400,77,8520,63,8580,56.7L8640,50L8640,100L8580,100C8520,100,8400,100,8280,100C8160,100,8040,100,7920,100C7800,100,7680,100,7560,100C7440,100,7320,100,7200,100C7080,100,6960,100,6840,100C6720,100,6600,100,6480,100C6360,100,6240,100,6120,100C6000,100,5880,100,5760,100C5640,100,5520,100,5400,100C5280,100,5160,100,5040,100C4920,100,4800,100,4680,100C4560,100,4440,100,4320,100C4200,100,4080,100,3960,100C3840,100,3720,100,3600,100C3480,100,3360,100,3240,100C3120,100,3000,100,2880,100C2760,100,2640,100,2520,100C2400,100,2280,100,2160,100C2040,100,1920,100,1800,100C1680,100,1560,100,1440,100C1320,100,1200,100,1080,100C960,100,840,100,720,100C600,100,480,100,360,100C240,100,120,100,60,100L0,100Z"></path></svg>