<svg id="visual" viewBox="0 0 900 675" width="900" height="675" xmlns="http://www.w3.org/2000/svg" xmlns:xlink="http://www.w3.org/1999/xlink" version="1.1"><path d="M0 471L13.7 470.3C27.3 469.7 54.7 468.3 82 466.7C109.3 465 136.7 463 163.8 465.8C191 468.7 218 476.3 245.2 480.2C272.3 484 299.7 484 327 479.2C354.3 474.3 381.7 464.7 409 464.7C436.3 464.7 463.7 474.3 491 478.3C518.3 482.3 545.7 480.7 573 480.5C600.3 480.3 627.7 481.7 654.8 483C682 484.3 709 485.7 736.2 483.8C763.3 482 790.7 477 818 477.7C845.3 478.3 872.7 484.7 886.3 487.8L900 491L900 676L886.3 676C872.7 676 845.3 676 818 676C790.7 676 763.3 676 736.2 676C709 676 682 676 654.8 676C627.7 676 600.3 676 573 676C545.7 676 518.3 676 491 676C463.7 676 436.3 676 409 676C381.7 676 354.3 676 327 676C299.7 676 272.3 676 245.2 676C218 676 191 676 163.8 676C136.7 676 109.3 676 82 676C54.7 676 27.3 676 13.7 676L0 676Z" fill="#0066FF" stroke-linecap="round" stroke-linejoin="miter"></path></svg>