<?xml version="1.0" encoding="utf-8"?>
<!-- Generator: Adobe Illustrator 24.0.3, SVG Export Plug-In . SVG Version: 6.00 Build 0)  -->
<!DOCTYPE svg PUBLIC "-//W3C//DTD SVG 1.1//EN" "http://www.w3.org/Graphics/SVG/1.1/DTD/svg11.dtd" [
	<!ENTITY ns_extend "http://ns.adobe.com/Extensibility/1.0/">
	<!ENTITY ns_ai "http://ns.adobe.com/AdobeIllustrator/10.0/">
	<!ENTITY ns_graphs "http://ns.adobe.com/Graphs/1.0/">
	<!ENTITY ns_vars "http://ns.adobe.com/Variables/1.0/">
	<!ENTITY ns_imrep "http://ns.adobe.com/ImageReplacement/1.0/">
	<!ENTITY ns_sfw "http://ns.adobe.com/SaveForWeb/1.0/">
	<!ENTITY ns_custom "http://ns.adobe.com/GenericCustomNamespace/1.0/">
	<!ENTITY ns_adobe_xpath "http://ns.adobe.com/XPath/1.0/">
]>
<svg version="1.1" xmlns:x="&ns_extend;" xmlns:i="&ns_ai;" xmlns:graph="&ns_graphs;"
	x="0px" y="0px" viewBox="0 0 1627.3 1152.7"
	 style="enable-background:new 0 0 1627.3 1152.7;" xml:space="preserve">
<style type="text/css">
	.st0{fill:#E3E3E3;}
	.st1{fill:#FFCD00;}
	.st2{fill:#FFFFFF;}
	.st3{fill:#1FA2C3;}
	.st4{fill:#FF4500;}
</style>
<metadata>
	<sfw  xmlns="&ns_sfw;">
		<slices></slices>
		<sliceSourceBounds  bottomLeftOrigin="true" height="1152.7" width="1627.3" x="-97" y="-1261.2"></sliceSourceBounds>
		<optimizationSettings>
			<targetSettings  fileFormat="PNG24Format" targetSettingsID="0">
				<PNG24Format  filtered="false" interlaced="false" matteColor="#FFFFFF" noMatteColor="false" transparency="true">
					</PNG24Format>
			</targetSettings>
		</optimizationSettings>
	</sfw>
</metadata>
<g id="background_1_">
	<g id="background">
		<path class="st0" d="M1348.8,675.1l-157.4-515.9c-11.9-38.9-53.2-60.9-92.1-49.1L251.7,368.7c24.6,12.9,53.4,18.3,95.8,21.2
			l18.3,1.2l-14.5,11.3c-67.8,52.7-83.7,82.5-89.6,168.2l-1.2,18.3l-11.3-14.5c-18.1-23.3-33.5-40.4-49.3-53.2l140.8,461.4
			c5.8,18.9,18.5,34.3,35.9,43.6c17.4,9.3,37.4,11.2,56.2,5.5l866.9-264.5C1338.7,755.4,1360.7,714,1348.8,675.1z M1024.9,180.4
			l4.3,13.3L880.7,242l-4.3-13.3L1024.9,180.4z M711,245.4l10,9.8L611.5,366.5l-10-9.8L711,245.4z M364.3,655.5l-22.5-73.9
			c-5.3-17.3,4.5-35.8,21.9-41l27.9-8.5l47.6-14.5l34.8-10.6c17.3-5.3,35.8,4.5,41,21.9l16.7,54.6l4.1,13.4l1.8,5.9
			c5.3,17.3-4.5,35.8-21.9,41l-9.7,3l-72.7,22.2l-27.9,8.5c-3.2,1-6.4,1.4-9.6,1.4C381.6,678.8,368.6,669.6,364.3,655.5z
			 M402.2,779.8l-6.2-20.3c-2.6-8.4-1.7-17.3,2.4-25s11-13.4,19.4-16l253.7-77.4c17.3-5.3,35.8,4.5,41,21.8l6.2,20.3
			c2.6,8.4,1.7,17.3-2.4,25.1c-4.1,7.8-11,13.4-19.4,16l-253.7,77.4c-3.2,1-6.4,1.4-9.6,1.4c-5.3,0-10.6-1.3-15.4-3.9
			C410.4,795.1,404.8,788.2,402.2,779.8z M842.3,805.8c-4.1,7.8-11,13.4-19.4,16L481.2,926c-3.2,1-6.4,1.5-9.6,1.5
			c-5.3,0-10.6-1.3-15.4-3.9c-7.8-4.1-13.4-11-16-19.4l-6.2-20.3c-5.3-17.3,4.5-35.8,21.8-41.1l341.7-104.2
			c8.4-2.6,17.3-1.7,25.1,2.4s13.4,11,16,19.4l6.2,20.3C847.3,789.1,846.4,798,842.3,805.8z M1094.8,632.9
			c-27.6,23.5-65.6,43.9-101.7,54.6c-25.9,7.7-55.3,11.8-83.1,11.8c-10.1,0-20-0.5-29.5-1.6c-41.4-4.9-69.6-20.3-79.6-43.4
			c-6.8-15.7-5.4-36.2,2.8-53.5l-6.1,0.3c0-0.2-1.2-22.1-14.3-43.9l-0.7-1.2c-8.4-13.6-19.7-24.1-33.7-31.5
			c-8.5-4.5-17.6-7.5-27-9.2c-1.7-0.3-3.4-0.5-5-0.7c-20.7-2.4-41.8,2.4-59.4,13.5l-7.5-11.8c20.3-12.8,44.6-18.4,68.4-15.6
			c1.9,0.2,3.8,0.5,5.7,0.8c4.5,0.8,8.9,1.8,13.3,3.2c-14-21.4-20.8-48.1-19.4-75.9c0.5-9.5,1.9-18.8,4.2-27.7l-40.5-12.7l4.2-13.4
			l40.6,12.8c2.9-7.6,6.4-14.8,10.6-21.5l-30.7-26.9l9.2-10.5l29.7,26c1.1-1.3,2.2-2.7,3.4-4c5.3-5.9,11-10.9,17-15.1l-15.2-35.1
			l12.9-5.5l14.5,33.5c12.2-5.9,25.3-8.6,38.7-7.9c25.1,1.3,48,14.4,64.5,37c16.2,22.1,24.2,50.7,22.7,80.6
			c-0.3,6.2-1.1,12.3-2.2,18.3c5.4-3.7,11.5-6.6,17.9-8.7c13.1-4.2,26.4-4.4,38.5-1.3c-6.9-5.8-13.3-12.3-19.1-19.6
			c-39-48.6-38.2-114.3,1.9-146.3c10.5-8.4,22.7-13.9,36-16.2l-7.9-35.7l13.7-3l8.3,37.4c7.4-0.1,15,0.7,22.7,2.3
			c1.7,0.4,3.4,0.8,5.1,1.2l8.9-38.4l13.6,3.2l-9.2,39.8c7.3,3,14.4,6.7,21.2,11.2l25.5-34.1l11.2,8.4l-25.4,34.1
			c7.1,5.9,13.7,12.5,19.6,20c18.7,23.3,28.9,51.3,28.8,78.7c-0.2,27.9-11,52-30.6,67.7c-14.4,11.6-32.2,17.5-51.5,17.5
			c-6.9,0-14-0.8-21.2-2.3c-6.6-1.4-13.1-3.5-19.4-6.1c4.8,5.6,8.6,12.2,11,19.6c1.9,5.8,2.8,11.6,2.8,17.4
			c0,14.6-5.6,28.8-15.4,40.2c16-7.5,29.2-15.8,40.8-23.1c25-15.7,44.8-28.1,69.8-18.1c19.9,8,35.6,27.4,39.1,48.3
			c0.5,2.8,0.7,5.7,0.7,8.7C1139,582.4,1123.6,608.4,1094.8,632.9z"/>
		<path class="st1" d="M341.7,581.6c-5.3-17.3,4.5-35.8,21.9-41l27.9-8.5l47.6-14.5l34.8-10.6c17.3-5.3,35.8,4.5,41,21.9l16.7,54.6
			l4.1,13.4l1.8,5.9c5.3,17.3-4.5,35.8-21.9,41l-9.7,3l-72.7,22.2l-27.9,8.5c-3.2,1-6.4,1.4-9.6,1.4c-14.1,0-27.2-9.1-31.5-23.3
			L341.7,581.6z"/>
		<path class="st1" d="M433.6,803.1c-5.3,0-10.6-1.3-15.4-3.9c-7.8-4.1-13.4-11-16-19.4l-6.2-20.3c-2.6-8.4-1.7-17.3,2.4-25
			s11-13.4,19.4-16l253.7-77.4c17.3-5.3,35.8,4.5,41,21.8l6.2,20.3c2.6,8.4,1.7,17.3-2.4,25.1c-4.1,7.8-11,13.4-19.4,16l-253.7,77.4
			C440.1,802.7,436.8,803.1,433.6,803.1z"/>
		<path class="st1" d="M844.7,780.7c2.6,8.4,1.7,17.3-2.4,25.1s-11,13.4-19.4,16L481.2,926c-3.2,1-6.4,1.5-9.6,1.5
			c-5.3,0-10.6-1.3-15.4-3.9c-7.8-4.1-13.4-11-16-19.4l-6.2-20.3c-5.3-17.3,4.5-35.8,21.8-41.1l341.7-104.2
			c8.4-2.6,17.3-1.7,25.1,2.4s13.4,11,16,19.4L844.7,780.7z"/>
		<path class="st2" d="M1138.3,550.1c-3.5-20.9-19.2-40.3-39.1-48.3c-25-10-44.8,2.4-69.8,18.1c-11.6,7.3-24.8,15.6-40.8,23.1
			c9.8-11.4,15.4-25.6,15.4-40.2c0-5.8-0.9-11.7-2.8-17.4c-2.4-7.4-6.2-14-11-19.6c6.3,2.6,12.8,4.7,19.4,6.1
			c7.2,1.6,14.3,2.3,21.2,2.3c19.3,0,37.1-6,51.5-17.5c19.6-15.7,30.5-39.8,30.6-67.7c0.2-27.4-10.1-55.3-28.8-78.7
			c-5.9-7.4-12.5-14.1-19.6-20l25.4-34.1l-11.2-8.4l-25.5,34.1c-6.8-4.5-13.9-8.2-21.2-11.2l9.2-39.8l-13.6-3.2l-8.9,38.4
			c-1.7-0.5-3.4-0.9-5.1-1.2c-7.7-1.7-15.3-2.4-22.7-2.3l-8.3-37.4l-13.7,3l7.9,35.7c-13.3,2.3-25.6,7.8-36,16.2
			c-40,32.1-40.8,97.7-1.9,146.3c5.8,7.2,12.2,13.8,19.1,19.6c-12.1-3.1-25.5-2.9-38.5,1.3c-6.5,2.1-12.5,5-17.9,8.7
			c1.1-5.9,1.8-12,2.2-18.3c1.5-29.9-6.5-58.5-22.7-80.6c-16.5-22.6-39.4-35.7-64.5-37c-13.4-0.7-26.5,2.1-38.7,7.9L763.6,295
			l-12.9,5.5l15.2,35.1c-6,4.2-11.7,9.3-17,15.1c-1.2,1.3-2.3,2.6-3.4,4l-29.7-26l-9.2,10.5l30.7,26.9c-4.2,6.7-7.8,13.9-10.6,21.5
			L686,374.9l-4.2,13.4l40.5,12.7c-2.3,8.9-3.8,18.2-4.2,27.7c-1.4,27.8,5.5,54.5,19.4,75.9c-4.3-1.3-8.8-2.4-13.3-3.2
			c-2-0.3-3.9-0.6-5.7-0.8c-23.9-2.8-48.2,2.8-68.4,15.6l7.5,11.8c17.6-11.1,38.7-15.9,59.4-13.5c1.6,0.2,3.3,0.4,5,0.7
			c9.4,1.6,18.5,4.7,27,9.2c13.9,7.3,25.2,17.9,33.7,31.5l0.7,1.2c13.1,21.9,14.3,43.7,14.3,43.9l6.1-0.3
			c-8.1,17.3-9.5,37.8-2.8,53.5c10,23.1,38.2,38.5,79.6,43.4c9.4,1.1,19.3,1.6,29.5,1.6c27.7,0,57.2-4.1,83.1-11.8
			c36.1-10.7,74.1-31.1,101.7-54.6c28.8-24.5,44.2-50.5,44.2-74.1C1139,555.9,1138.8,553,1138.3,550.1z M952.2,420.7
			c-0.7-0.9-1.5-1.8-2.2-2.7c-34.2-42.6-34.3-99.4-0.3-126.7c11.9-9.5,26.7-14.5,42.8-14.5c5.9,0,12,0.7,18.2,2
			c23.6,5.1,45.8,19.4,62.6,40.2c16.7,20.8,25.8,45.6,25.7,69.8c-0.1,23.6-9.1,43.8-25.4,56.8c-7.5,6.1-16.3,10.2-25.8,12.5
			c25.7-14.9,38.8-46.1,29.7-75.7c-1.1-3.5-2.4-6.9-4-10.1c-5.1,10.1-14.2,18.2-25.9,21.8c-22.7,6.9-46.7-5.9-53.7-28.6
			c-2.7-8.9-2.4-18,0.4-26.2C960.7,350.6,941.9,386.6,952.2,420.7z M924,461c5.8-1.9,11.7-2.8,17.5-2.8c10.6,0,20.6,3,28.8,8.5
			c8.2,5.5,14.5,13.3,17.7,23c8,24.7-7.8,51.9-35,60.7c-13.3,4.3-27.4,3.6-39.5-1.9c-11.9-5.5-20.6-15-24.4-26.8
			c-3.8-11.8-2.4-24.6,4.1-36C899.7,474.1,910.6,465.3,924,461z M736.3,468c-3.4-12.2-4.8-25.2-4.2-38.6c0.7-13.3,3.4-26.2,8-37.9
			c4.6-11.7,11.1-22.4,19.1-31.4c15-16.7,33.9-25.7,53.5-25.7c1.1,0,2.2,0,3.2,0.1c20.8,1,39.9,12.1,53.9,31.2
			c14.3,19.5,21.4,45,20,71.7c-2.1,41.9-24.9,76.8-55,89.6c25.6-15,38.5-46,29.5-75.6c-1.1-3.5-2.4-6.9-4-10.1
			c-5.1,10.1-14.2,18.2-25.9,21.8c-22.7,6.9-46.8-5.9-53.7-28.6c-2.7-8.9-2.4-18,0.4-26.2C754.6,417.1,737.3,441.4,736.3,468z
			 M989.1,674.1c-33.6,10-73.5,13.6-106.9,9.6c-36.2-4.3-60.5-16.7-68.4-35.1c-6.7-15.6-2.5-38.6,9.8-53.5
			c12.5-15.2,29-15.3,53.9-15.6c20-0.2,45-0.5,75.9-8.8c37.2-10,62.8-26.1,83.4-39c19.2-12,31.9-19.5,44.5-19.5
			c4.2,0,8.3,0.8,12.7,2.6c7.6,3.1,14.6,8.5,20,15.1c5.4,6.6,9.2,14.5,10.5,22.5C1131.9,596.9,1059.1,653.3,989.1,674.1z"/>
		<path class="st3" d="M1619.1,663c-26.3-86.3-108.9-139.9-195.3-132.9l-140-458.7c-16.2-53.2-72.6-83.2-125.8-67L327.4,257.8
			c-50.6-30.2-113.3-39.7-174.1-21.1C39,271.6-25.4,392.6,9.5,506.9c20.6,67.5,71.2,117.6,132.7,140.1l132.5,434.2
			c16.2,53.2,72.6,83.2,125.8,67L1323,866.8c46.8,36.3,109.8,50.1,170.8,31.5C1593.4,868,1649.5,762.6,1619.1,663z M1541.2,732.6
			c-2.9,5.4-7.7,9.4-13.6,11.2c-5.9,1.8-12.1,1.2-17.5-1.7c-5.4-2.9-9.4-7.7-11.2-13.6s-1.2-12.1,1.7-17.5
			c2.9-5.4,7.7-9.4,13.6-11.2c2.2-0.7,4.5-1,6.7-1c3.7,0,7.4,0.9,10.8,2.7c2.7,1.4,5.1,3.4,6.9,5.7c1.9,2.3,3.3,5,4.2,7.9
			C1544.7,720.9,1544.1,727.1,1541.2,732.6z M1415.9,785.2c-4.3-14.2,3.7-29.4,18-33.7c2.6-0.8,5.3-1.2,7.9-1.2
			c11.6,0,22.3,7.5,25.8,19.1c4.3,14.2-3.7,29.4-17.9,33.7C1435.3,807.5,1420.2,799.4,1415.9,785.2z M1456.4,683.4
			c2.8,1.5,4.9,4,5.8,7.1c1.9,6.3-1.7,13-8,15c-3.1,0.9-6.3,0.6-9.1-0.9c-2.8-1.5-4.9-4-5.8-7.1c-0.9-3.1-0.6-6.3,0.9-9.1
			s4-4.9,7.1-5.8c1.2-0.4,2.3-0.5,3.5-0.5C1452.8,682,1454.7,682.5,1456.4,683.4z M383.3,1048.3c-5.6-3-10.6-6.6-15.2-10.7
			c0.6,0.4,1.2,0.7,1.9,1.1c12.9,6.9,27,10.3,41.2,10.3c8.6,0,17.3-1.3,25.7-3.9l866.9-264.5c46.3-14.1,72.5-63.3,58.4-109.6
			l-157.4-515.9c-7-23.1-22.8-41.2-42.5-51.7c4.9,1.4,9.7,3.3,14.3,5.8c17.4,9.3,30.2,24.8,35.9,43.6l164.1,537.9
			c11.9,38.9-10.1,80.3-49.1,92.1l-888,270.9C420.7,1059.5,400.7,1057.6,383.3,1048.3z M328.9,402.5
			c-55.2,45.4-72.8,78.4-79.6,149.5c-45.4-55.2-78.4-72.8-149.5-79.6c55.2-45.3,72.8-78.4,79.6-149.5
			C224.7,378,257.8,395.6,328.9,402.5z M249.3,574.5l11.3,14.5l1.2-18.3c5.9-85.7,21.8-115.5,89.6-168.2l14.5-11.3l-18.3-1.2
			c-42.5-2.9-71.2-8.3-95.8-21.2l847.6-258.6c38.9-11.9,80.3,10.1,92.1,49.1l157.4,515.9c11.9,38.9-10.1,80.2-49.1,92.1
			l-866.9,264.5c-18.9,5.8-38.8,3.8-56.2-5.4c-17.4-9.3-30.2-24.8-35.9-43.6L200,521.3C215.8,534,231.2,551.2,249.3,574.5z"/>
		<path class="st4" d="M989.1,674.1c-33.6,10-73.5,13.6-106.9,9.6c-36.2-4.3-60.5-16.7-68.4-35.1c-6.7-15.6-2.5-38.6,9.8-53.5
			c12.5-15.2,29-15.3,53.9-15.6c20-0.2,45-0.5,75.9-8.8c37.2-10,62.8-26.1,83.4-39c19.2-12,31.9-19.5,44.5-19.5
			c4.2,0,8.3,0.8,12.7,2.6c7.6,3.1,14.6,8.5,20,15.1c5.4,6.6,9.2,14.5,10.5,22.5C1131.9,596.9,1059.1,653.3,989.1,674.1z"/>
		<path class="st1" d="M952.9,550.5c-13.3,4.3-27.4,3.6-39.5-1.9c-11.9-5.5-20.6-15-24.4-26.8c-3.8-11.8-2.4-24.6,4.1-36
			c6.6-11.6,17.6-20.4,30.9-24.7c5.8-1.9,11.7-2.8,17.5-2.8c10.6,0,20.6,3,28.8,8.5c8.2,5.5,14.5,13.3,17.7,23
			C995.9,514.4,980.1,541.6,952.9,550.5z"/>
		<path class="st4" d="M328.9,402.5c-55.2,45.3-72.8,78.4-79.6,149.5c-45.4-55.2-78.4-72.8-149.5-79.6
			c55.2-45.3,72.8-78.4,79.6-149.5C224.7,378,257.8,395.6,328.9,402.5z"/>
		<path class="st4" d="M1449.6,803.1c-14.2,4.3-29.4-3.7-33.7-17.9c-4.3-14.2,3.7-29.4,18-33.7c2.6-0.8,5.3-1.2,7.9-1.2
			c11.6,0,22.3,7.5,25.8,19.1C1471.9,783.6,1463.8,798.8,1449.6,803.1z"/>
		<path class="st4" d="M1454.3,705.5c-3.1,0.9-6.3,0.6-9.1-0.9c-2.8-1.5-4.9-4-5.8-7.1c-0.9-3.1-0.6-6.3,0.9-9.1
			c1.5-2.8,4-4.9,7.1-5.8c1.2-0.3,2.3-0.5,3.5-0.5c1.9,0,3.9,0.5,5.6,1.4c2.8,1.5,4.9,4,5.8,7.1
			C1464.2,696.8,1460.6,703.6,1454.3,705.5z"/>
		<path class="st4" d="M1541.2,732.6c-2.9,5.4-7.7,9.4-13.6,11.2c-5.9,1.8-12.1,1.2-17.5-1.7c-5.4-2.9-9.4-7.7-11.2-13.6
			s-1.2-12.1,1.7-17.5c2.9-5.4,7.7-9.4,13.6-11.2c2.2-0.7,4.5-1,6.7-1c3.7,0,7.4,0.9,10.8,2.7c2.7,1.4,5.1,3.4,7,5.7
			c1.9,2.3,3.3,5,4.2,7.9C1544.7,720.9,1544.1,727.1,1541.2,732.6z"/>
	</g>
	<path class="st0" d="M1327.5,782.8l-888,270.9c-18.9,5.8-38.8,3.8-56.2-5.4c-5.6-3-10.6-6.6-15.2-10.7c0.6,0.4,1.2,0.7,1.9,1.1
		c12.9,6.9,27,10.3,41.2,10.3c8.6,0,17.3-1.3,25.7-3.9l866.9-264.5c46.3-14.1,72.5-63.3,58.4-109.6l-157.4-515.9
		c-7-23.1-22.8-41.2-42.5-51.7c4.9,1.4,9.7,3.3,14.3,5.8c17.4,9.3,30.2,24.8,35.9,43.6l164.1,537.9
		C1388.5,729.6,1366.5,771,1327.5,782.8z"/>
</g>
<g id="general">
	<g id="general_4_">
		<path id="main_3_" d="M1390,686.6l-164.1-537.9c-6.8-22.4-22-40.9-42.7-51.9c-20.7-11-44.5-13.3-66.9-6.5L235.8,358.9l-3.3,1
			l4.1,13.4l15-4.6l847.6-258.6c38.9-11.9,80.3,10.1,92.1,49.1l157.4,515.9c11.9,38.9-10.1,80.2-49.1,92.1l-866.9,264.5
			c-18.9,5.8-38.8,3.8-56.2-5.4c-17.4-9.3-30.2-24.8-35.9-43.6L200,521.3l-5.9-19.4l-13.4,4.1l0.8,2.6l145.9,478.2l6.7,22
			c6.9,22.4,22,40.9,42.7,51.9c12.9,6.9,27,10.3,41.2,10.3c8.6,0,17.3-1.3,25.7-3.9l888-270.9C1377.9,782.1,1404.1,732.9,1390,686.6
			z M1327.5,782.8l-888,270.9c-18.9,5.8-38.8,3.8-56.2-5.4c-5.6-3-10.6-6.6-15.2-10.7c0.6,0.4,1.2,0.7,1.9,1.1
			c12.9,6.9,27,10.3,41.2,10.3c8.6,0,17.3-1.3,25.7-3.9l866.9-264.5c46.3-14.1,72.5-63.3,58.4-109.6l-157.4-515.9
			c-7-23.1-22.8-41.2-42.5-51.7c4.9,1.4,9.7,3.3,14.3,5.8c17.4,9.3,30.2,24.8,35.9,43.6l164.1,537.9
			C1388.5,729.6,1366.5,771,1327.5,782.8z"/>
		<g id="circles_3_">
			<path d="M1480.9,765.3c-6.6-21.6-29.5-33.8-51.2-27.2c-21.6,6.6-33.8,29.6-27.2,51.2c5.4,17.7,21.7,29,39.2,29
				c4,0,8-0.6,11.9-1.8c17.6-5.4,29-21.7,29-39.2C1482.7,773.3,1482.1,769.3,1480.9,765.3z M1449.6,803.1
				c-14.2,4.3-29.4-3.7-33.7-17.9c-4.3-14.2,3.7-29.4,18-33.7c2.6-0.8,5.3-1.2,7.9-1.2c11.6,0,22.3,7.5,25.8,19.1
				C1471.9,783.6,1463.8,798.8,1449.6,803.1z"/>
			<path d="M1475.7,686.4c-2-6.6-6.5-12.1-12.6-15.4c-6.1-3.3-13.2-4-19.8-1.9c-6.6,2-12.1,6.5-15.4,12.7
				c-3.3,6.1-3.9,13.2-1.9,19.8c2,6.7,6.5,12.1,12.6,15.4c3.8,2,8,3.1,12.2,3.1c2.5,0,5.1-0.4,7.6-1.1c11.2-3.4,18.4-13.8,18.4-24.9
				C1476.8,691.5,1476.4,688.9,1475.7,686.4z M1454.3,705.5c-3.1,0.9-6.3,0.6-9.1-0.9c-2.8-1.5-4.9-4-5.8-7.1
				c-0.9-3.1-0.6-6.3,0.9-9.1c1.5-2.8,4-4.9,7.1-5.8c1.2-0.3,2.3-0.5,3.5-0.5c1.9,0,3.9,0.5,5.6,1.4c2.8,1.5,4.9,4,5.8,7.1
				C1464.2,696.8,1460.6,703.6,1454.3,705.5z"/>
			<path d="M1556.3,710.9c-2.9-9.5-9.3-17.2-18-21.9c-8.7-4.7-18.7-5.6-28.2-2.7c-9.5,2.9-17.2,9.3-21.9,18
				c-4.6,8.7-5.6,18.7-2.7,28.2c2.9,9.5,9.3,17.2,18,21.9c5.4,2.9,11.4,4.3,17.3,4.3c3.6,0,7.3-0.5,10.8-1.6
				c15.9-4.9,26.2-19.6,26.2-35.4C1557.9,718.2,1557.4,714.5,1556.3,710.9z M1541.2,732.6c-2.9,5.4-7.7,9.4-13.6,11.2
				c-5.9,1.8-12.1,1.2-17.5-1.7c-5.4-2.9-9.4-7.7-11.2-13.6s-1.2-12.1,1.7-17.5c2.9-5.4,7.7-9.4,13.6-11.2c2.2-0.7,4.5-1,6.7-1
				c3.7,0,7.4,0.9,10.8,2.7c2.7,1.4,5.1,3.4,7,5.7c1.9,2.3,3.3,5,4.2,7.9C1544.7,720.9,1544.1,727.1,1541.2,732.6z"/>
		</g>
		<g id="signs_3_">
			<path d="M718.8,683.2l-6.2-20.3c-5.3-17.3-23.7-27.1-41-21.8l-253.7,77.4c-8.4,2.6-15.3,8.2-19.4,16s-5,16.6-2.4,25l6.2,20.3
				c2.6,8.4,8.2,15.3,16,19.4c4.8,2.6,10.1,3.9,15.4,3.9c3.2,0,6.5-0.5,9.6-1.4l253.7-77.4c8.4-2.6,15.3-8.2,19.4-16
				C720.5,700.5,721.4,691.7,718.8,683.2z M692.8,710.9l-253.7,77.4c-4.8,1.5-9.9,1-14.4-1.4c-4.5-2.4-7.7-6.3-9.2-11.2l-6.2-20.3
				c-1.5-4.8-1-9.9,1.4-14.4c2.4-4.5,6.3-7.7,11.2-9.2l253.7-77.4c1.8-0.6,3.7-0.8,5.5-0.8c3,0,6.1,0.8,8.8,2.2
				c4.5,2.4,7.7,6.3,9.2,11.2l6.2,20.3C708.4,697.3,702.8,707.9,692.8,710.9z"/>
			<path d="M844.7,780.7l-6.2-20.3c-2.6-8.4-8.2-15.3-16-19.4s-16.6-5-25.1-2.4L455.8,842.8c-17.3,5.3-27.1,23.7-21.8,41.1l6.2,20.3
				c2.6,8.4,8.2,15.3,16,19.4c4.8,2.6,10.1,3.9,15.4,3.9c3.2,0,6.5-0.5,9.6-1.5l341.7-104.2c8.4-2.6,15.3-8.2,19.4-16
				S847.3,789.1,844.7,780.7z M829.9,799.2c-2.4,4.5-6.3,7.7-11.2,9.2L477.1,912.6c-10,3-20.5-2.6-23.6-12.5l-6.2-20.3
				c-3-10,2.6-20.5,12.6-23.6L801.6,752c1.8-0.5,3.7-0.8,5.5-0.8c8.1,0,15.6,5.2,18.1,13.4l6.2,20.3
				C832.8,789.7,832.3,794.8,829.9,799.2z"/>
		</g>
		<path id="star_3_" d="M347.5,389.9c-42.5-2.9-71.2-8.3-95.8-21.2c-5.5-2.9-10.7-6.1-15.9-9.8c-18.5-13.2-35.7-31.8-56.5-58.6
			l-11.3-14.5l-1.2,18.3c-5.8,85.7-21.8,115.5-89.6,168.2l-14.5,11.3l18.3,1.2c45.1,3.1,74.7,8.9,100.4,23.7
			c6.4,3.6,12.5,7.9,18.5,12.7c15.9,12.7,31.3,29.9,49.3,53.2l11.3,14.5l1.2-18.3c5.9-85.7,21.8-115.5,89.6-168.2l14.5-11.3
			L347.5,389.9z M249.3,552c-45.4-55.2-78.4-72.8-149.5-79.6c55.2-45.3,72.8-78.4,79.6-149.5c45.4,55.2,78.4,72.8,149.5,79.6
			C273.7,447.8,256.1,480.9,249.3,552z"/>
		<path id="chip_3_" d="M537.4,602.7l-1.8-5.9l-4.1-13.4l-16.7-54.6c-5.3-17.4-23.7-27.2-41-21.9L439,517.6l-47.6,14.5l-27.9,8.5
			c-17.3,5.3-27.1,23.7-21.9,41l22.5,73.9c4.3,14.2,17.4,23.3,31.5,23.3c3.2,0,6.4-0.5,9.6-1.4l27.9-8.5l72.7-22.2l9.7-3
			C532.9,638.4,542.7,620,537.4,602.7z M477.9,520.3c1.8-0.6,3.7-0.8,5.5-0.8c8.1,0,15.6,5.2,18.1,13.4l2.1,6.8l-27.7,8.5l-7.6-24.9
			L477.9,520.3z M355.1,577.5c-1.5-4.8-1-9.9,1.4-14.4c2.4-4.5,6.3-7.7,11.2-9.2l27.9-8.5l7.6,24.9l-45.9,14L355.1,577.5z
			 M371.8,632.2l-10.5-34.4l45.9-14l10.5,34.4L371.8,632.2z M401.2,664c-10,3-20.5-2.6-23.6-12.5l-1.8-5.8l45.9-14l7.3,23.9
			L401.2,664z M484.5,638.6l-42,12.8l-33.6-110l45.9-14l9.6,31.6l2.1,6.7l41.1-12.5l10.5,34.4L477,600.1l4.1,13.4l7.3,23.9
			L484.5,638.6z M522.6,621.1c-2.4,4.5-6.3,7.7-11.2,9.2l-9.7,3l-7.3-23.9l27.7-8.5l1.8,5.8C525.5,611.6,525,616.7,522.6,621.1z"/>
		<g id="face_3_">
			<path id="mouth_3_" d="M1138.3,550.1c-3.5-20.9-19.2-40.3-39.1-48.3c-25-10-44.8,2.4-69.8,18.1c-11.6,7.3-24.8,15.6-40.8,23.1
				c-11.4,5.4-24.2,10.3-38.8,14.2c-12.9,3.5-24.8,5.5-35.6,6.6c-13.8,1.5-26,1.6-36.8,1.7c-26.8,0.3-47.9,0.5-64.6,20.7
				c-0.9,1.1-1.8,2.2-2.6,3.4c-2.5,3.5-4.6,7.1-6.5,11c-8.1,17.3-9.5,37.8-2.8,53.5c10,23.1,38.2,38.5,79.6,43.4
				c9.4,1.1,19.3,1.6,29.5,1.6c27.7,0,57.2-4.1,83.1-11.8c36.1-10.7,74.1-31.1,101.7-54.6c28.8-24.5,44.2-50.5,44.2-74.1
				C1139,555.9,1138.8,553,1138.3,550.1z M989.1,674.1c-33.6,10-73.5,13.6-106.9,9.6c-36.2-4.3-60.5-16.7-68.4-35.1
				c-6.7-15.6-2.5-38.6,9.8-53.5c12.5-15.2,29-15.3,53.9-15.6c20-0.2,45-0.5,75.9-8.8c37.2-10,62.8-26.1,83.4-39
				c19.2-12,31.9-19.5,44.5-19.5c4.2,0,8.3,0.8,12.7,2.6c7.6,3.1,14.6,8.5,20,15.1c5.4,6.6,9.2,14.5,10.5,22.5
				C1131.9,596.9,1059.1,653.3,989.1,674.1z"/>
			<path d="M811.6,600.3l-7.8,0.4l-6.1,0.3c0-0.2-1.2-22.1-14.3-43.9l-0.7-1.2c-8.4-13.6-19.7-24.1-33.7-31.5
				c-8.5-4.5-17.6-7.5-27-9.2c-1.7-0.3-3.4-0.5-5-0.7c-20.7-2.4-41.8,2.4-59.4,13.5l-7.5-11.8c20.3-12.8,44.6-18.4,68.4-15.6
				c1.9,0.2,3.8,0.5,5.7,0.8c4.5,0.8,8.9,1.8,13.3,3.2c6.2,1.9,12.1,4.4,17.9,7.4c14.8,7.8,27,18.7,36.4,32.5c0.9,1.3,1.8,2.7,2.6,4
				l0.8,1.4c9.1,15.1,13.1,30.2,14.9,39.9C811.3,595.9,811.5,599.9,811.6,600.3z"/>
			<g id="brows_3_">
				<rect x="583.2" y="299" transform="matrix(0.7013 -0.7129 0.7129 0.7013 -20.5762 562.8124)" width="156.1" height="14"/>
				<rect x="874.8" y="204.2" transform="matrix(0.9511 -0.309 0.309 0.9511 -18.637 304.7734)" width="156.1" height="14"/>
			</g>
			<g id="eyes_3_">
				<path d="M881.2,357.5c-16.5-22.6-39.4-35.7-64.5-37c-13.4-0.7-26.5,2.1-38.7,7.9L763.6,295l-12.9,5.5l15.2,35.1
					c-6,4.2-11.7,9.3-17,15.1c-1.2,1.3-2.3,2.6-3.4,4l-29.7-26l-9.2,10.5l30.7,26.9c-4.2,6.7-7.8,13.9-10.6,21.5L686,374.9
					l-4.2,13.4l40.5,12.7c-2.3,8.9-3.8,18.2-4.2,27.7c-1.4,27.8,5.5,54.5,19.4,75.9c1,1.6,2.1,3.2,3.3,4.8
					c13.5,18.5,31.3,30.6,51,35.1c4.4,1,8.9,1.6,13.4,1.9c1.3,0.1,2.6,0.1,3.9,0.1c24.4,0,47.1-11.6,64.1-30.7
					c13.9-15.6,24.1-36.1,28.4-59.3c1.1-5.9,1.8-12,2.2-18.3C905.4,408.3,897.3,379.6,881.2,357.5z M834.9,527
					c25.6-15,38.5-46,29.5-75.6c-1.1-3.5-2.4-6.9-4-10.1c-5.1,10.1-14.2,18.2-25.9,21.8c-22.7,6.9-46.8-5.9-53.7-28.6
					c-2.7-8.9-2.4-18,0.4-26.2c-26.6,8.8-43.9,33-44.9,59.6c-3.4-12.2-4.8-25.2-4.2-38.6c0.7-13.3,3.4-26.2,8-37.9
					c4.6-11.7,11.1-22.4,19.1-31.4c15-16.7,33.9-25.7,53.5-25.7c1.1,0,2.2,0,3.2,0.1c20.8,1,39.9,12.1,53.9,31.2
					c14.3,19.5,21.4,45,20,71.7C887.8,479.3,865,514.2,834.9,527z"/>
				<path class="st2" d="M889.9,437.4c-2.1,41.9-24.9,76.8-55,89.6c25.6-15,38.5-46,29.5-75.6c-1.1-3.5-2.4-6.9-4-10.1
					c-5.1,10.1-14.2,18.2-25.9,21.8c-22.7,6.9-46.8-5.9-53.7-28.6c-2.7-8.9-2.4-18,0.4-26.2c-26.6,8.8-43.9,33-44.9,59.6
					c-3.4-12.2-4.8-25.2-4.2-38.6c0.7-13.3,3.4-26.2,8-37.9c4.6-11.7,11.1-22.4,19.1-31.4c15-16.7,33.9-25.7,53.5-25.7
					c1.1,0,2.2,0,3.2,0.1c20.8,1,39.9,12.1,53.9,31.2C884.1,385.3,891.3,410.7,889.9,437.4z"/>
				<path d="M1084.1,310.4c-5.9-7.4-12.5-14.1-19.6-20l25.4-34.1l-11.2-8.4l-25.5,34.1c-6.8-4.5-13.9-8.2-21.2-11.2l9.2-39.8
					l-13.6-3.2l-8.9,38.4c-1.7-0.5-3.4-0.9-5.1-1.2c-7.7-1.7-15.3-2.4-22.7-2.3l-8.3-37.4l-13.7,3l7.9,35.7
					c-13.3,2.3-25.6,7.8-36,16.2c-40,32.1-40.8,97.7-1.9,146.3c5.8,7.2,12.2,13.8,19.1,19.6c9.9,8.2,20.6,14.8,32,19.5
					c6.3,2.6,12.8,4.7,19.4,6.1c7.2,1.6,14.3,2.3,21.2,2.3c19.3,0,37.1-6,51.5-17.5c19.6-15.7,30.5-39.8,30.6-67.7
					C1113.1,361.7,1102.9,333.7,1084.1,310.4z M1073.5,445.8c-7.5,6.1-16.3,10.2-25.8,12.5c25.7-14.9,38.8-46.1,29.7-75.7
					c-1.1-3.5-2.4-6.9-4-10.1c-5.1,10.1-14.2,18.2-25.9,21.8c-22.7,6.9-46.7-5.9-53.7-28.6c-2.7-8.9-2.4-18,0.4-26.2
					c-33.7,11.1-52.5,47.1-42.1,81.2c-0.7-0.9-1.5-1.8-2.2-2.7c-34.2-42.6-34.3-99.4-0.3-126.7c11.9-9.5,26.7-14.5,42.8-14.5
					c5.9,0,12,0.7,18.2,2c23.6,5.1,45.8,19.4,62.6,40.2c16.7,20.8,25.8,45.6,25.7,69.8C1098.8,412.6,1089.8,432.8,1073.5,445.8z"/>
				<path class="st2" d="M1098.9,389c-0.1,23.6-9.1,43.8-25.4,56.8c-7.5,6.1-16.3,10.2-25.8,12.5c25.7-14.9,38.8-46.1,29.7-75.7
					c-1.1-3.5-2.4-6.9-4-10.1c-5.1,10.1-14.2,18.2-25.9,21.8c-22.7,6.9-46.7-5.9-53.7-28.6c-2.7-8.9-2.4-18,0.4-26.2
					c-33.7,11.1-52.5,47.1-42.1,81.2c-0.7-0.9-1.5-1.8-2.2-2.7c-34.2-42.6-34.3-99.4-0.3-126.7c11.9-9.5,26.7-14.5,42.8-14.5
					c5.9,0,12,0.7,18.2,2c23.6,5.1,45.8,19.4,62.6,40.2C1089.9,340,1099.1,364.8,1098.9,389z"/>
			</g>
			<path id="nose_3_" d="M1001.2,485.4c-2.4-7.4-6.2-14-11-19.6c-8.2-9.5-19.4-16.3-32-19.5c-12.1-3.1-25.5-2.9-38.5,1.3
				c-6.5,2.1-12.5,5-17.9,8.7c-8.6,5.8-15.7,13.4-20.8,22.4c-6.6,11.6-9.2,24.4-7.6,36.9c0.4,3.5,1.2,6.9,2.3,10.3
				c5,15.6,16.4,28.1,31.9,35.2c2.2,1,4.4,1.9,6.6,2.6c6.8,2.2,13.9,3.4,21.2,3.4c7.3,0,14.6-1.1,21.8-3.5
				c12.8-4.1,23.5-11.5,31.4-20.7c9.8-11.4,15.4-25.6,15.4-40.2C1004,497.1,1003.1,491.2,1001.2,485.4z M952.9,550.5
				c-13.3,4.3-27.4,3.6-39.5-1.9c-11.9-5.5-20.6-15-24.4-26.8c-3.8-11.8-2.4-24.6,4.1-36c6.6-11.6,17.6-20.4,30.9-24.7
				c5.8-1.9,11.7-2.8,17.5-2.8c10.6,0,20.6,3,28.8,8.5c8.2,5.5,14.5,13.3,17.7,23C995.9,514.4,980.1,541.6,952.9,550.5z"/>
		</g>
	</g>
</g>
</svg>
