<?xml version="1.0" encoding="utf-8"?>
<!-- Generator: Adobe Illustrator 24.0.3, SVG Export Plug-In . SVG Version: 6.00 Build 0)  -->
<!DOCTYPE svg PUBLIC "-//W3C//DTD SVG 1.1//EN" "http://www.w3.org/Graphics/SVG/1.1/DTD/svg11.dtd" [
	<!ENTITY ns_extend "http://ns.adobe.com/Extensibility/1.0/">
	<!ENTITY ns_ai "http://ns.adobe.com/AdobeIllustrator/10.0/">
	<!ENTITY ns_graphs "http://ns.adobe.com/Graphs/1.0/">
	<!ENTITY ns_vars "http://ns.adobe.com/Variables/1.0/">
	<!ENTITY ns_imrep "http://ns.adobe.com/ImageReplacement/1.0/">
	<!ENTITY ns_sfw "http://ns.adobe.com/SaveForWeb/1.0/">
	<!ENTITY ns_custom "http://ns.adobe.com/GenericCustomNamespace/1.0/">
	<!ENTITY ns_adobe_xpath "http://ns.adobe.com/XPath/1.0/">
]>
<svg version="1.1" xmlns:x="&ns_extend;" xmlns:i="&ns_ai;" xmlns:graph="&ns_graphs;"
	 xmlns="http://www.w3.org/2000/svg" xmlns:xlink="http://www.w3.org/1999/xlink" x="0px" y="0px" viewBox="0 0 916.5 1407.4"
	 style="enable-background:new 0 0 916.5 1407.4;" xml:space="preserve">
<style type="text/css">
	.st0{fill:#E3E3E3;}
	.st1{fill:#FF4500;}
	.st2{fill:#FFFFFF;}
	.st3{fill:#1FA2C3;}
	.st4{fill:#FFCD00;}
</style>
<metadata>
	<sfw  xmlns="&ns_sfw;">
		<slices></slices>
		<sliceSourceBounds  bottomLeftOrigin="true" height="1407.4" width="916.5" x="275.3" y="-1403.3"></sliceSourceBounds>
	</sfw>
</metadata>
<g id="background_1_">
	<g id="background">
		<path class="st0" d="M740.7,299.1l-470.9-151c1.8,5.3,3.9,10.2,6.4,14.9c10.5,20.4,27.3,38.2,60,63.7l15.1,11.7l-19.1,0.8
			c-41.4,1.7-65.5,6.4-85.9,16.9c-20.4,10.5-38.2,27.3-63.7,60l-11.7,15.1l-0.8-19.1c-0.6-16.1-1.8-29.6-3.5-41.3l-62,193.4
			c-3.9,12.3-3.4,25.1,1.5,36.2c4.8,10.8,13.1,18.6,23.6,21.9l159.3,51.1c5.5,1.8,10.6,4.4,15.1,7.8c18.4-6.8,38.4-7.3,57.3-1.2
			c22.4,7.2,40.7,22.6,51.4,43.6c10.8,20.9,12.7,44.8,5.6,67.2c-2.2,6.8-5.1,13.2-8.7,19.1c3.4,2.5,6.4,5.1,9,8
			c8.3,9.2,11.3,19.4,8.3,28.5c-2.9,9.2-11.2,15.7-23.4,18.4c-4,0.9-8.2,1.3-12.6,1.3c-7.6,0-15.7-1.3-23.7-3.9
			c-8.2-2.6-15.7-6.4-22-11c-3.6,0.4-7.2,0.7-10.8,0.7c-3.5,0-7-0.2-10.4-0.6l-6.4,27l-13.6-3.2l6.3-26.6c-0.9-0.3-1.8-0.5-2.7-0.8
			c-5-1.6-9.8-3.6-14.3-6l-4.3,13.5l0,0l-118.6,370.1c-7,24.8,4.2,49.5,25.6,56.4l237.4,76.1c21.8,7,46.1-7.7,54.2-32.7l278.3-867.9
			C773.8,332.2,762.6,306.1,740.7,299.1z M284.3,370.6L381,313l11.3,18.9l-67.7,40.3l196.3,63c4.2,1.3,9.3-2.2,11.1-7.7l19.7-61.5
			c0.9-2.9,0.8-6-0.3-8.6c-0.5-1.2-1.8-3.4-4.2-4.1l-91.8-29.4l6.7-21l91.8,29.4c7.8,2.5,14.3,8.4,17.7,16.3
			c3.3,7.5,3.7,16,1.1,24.1l-19.7,61.5c-4.5,14.1-17.1,23.3-30.2,23.3c-2.9,0-5.7-0.4-8.6-1.3l-195.9-62.8l31.9,72.8l-20.2,8.8
			L284.3,370.6z M424.3,565.9l-114.8-36l4.2-13.4l114.8,36L424.3,565.9z M502.7,914.1c-6.3,19.6-24.6,33.6-51.7,39.7
			c-9.4,2.1-19.4,3.1-29.9,3.1c-18.3,0-37.8-3.2-57.1-9.3c-30.4-9.8-56.8-25.9-74.4-45.5c-18.5-20.6-25.3-42.8-19-62.3
			c6.3-19.6,24.6-33.7,51.7-39.7c25.7-5.7,56.6-3.5,87,6.2c30.4,9.8,56.8,25.9,74.4,45.5C502.2,872.4,509,894.6,502.7,914.1z
			 M617.5,803.4l-10.2,9.6l-18.8-19.8c-4.6,3.7-9.6,7-15,9.7c-4.8,2.5-9.8,4.5-14.9,6l4.7,25.9l-13.8,2.5L545,812
			c-3.8,0.5-7.7,0.8-11.6,0.8c-9,0-18.1-1.4-27-4.2c-0.9-0.3-1.8-0.6-2.6-0.9l-10.3,25.3l-13-5.3l10.5-25.7
			c-15.3-8.4-27.8-21.1-36-37c-10.8-20.9-12.7-44.8-5.6-67.2c7.2-22.4,22.7-40.7,43.6-51.4c20.9-10.8,44.8-12.7,67.2-5.5
			c22.4,7.2,40.7,22.7,51.4,43.6c10.8,20.9,12.7,44.8,5.6,67.2c-3.9,12.1-10.2,22.9-18.4,32.1L617.5,803.4z M638.9,600.2l-87.4-58.2
			l7.8-11.6l87.4,58.2L638.9,600.2z"/>
		<path class="st1" d="M872.1,253.5L350,86.1h0C328.9,50.9,295.5,22.8,253.4,9C158.5-22.4,55.6,31.4,27.1,127.2
			C8.5,189.7,26,254.8,67.8,299.5c0,0,0,0,0,0l-64.8,202C-7.7,535,10.8,571,44.4,581.8l98.9,31.7c0,0,0,0,0,0
			c-0.6,1.6-1.1,3.3-1.7,4.9c-19.2,59.8,3,123,50.7,158.6c0,0,0,0,0,0L58.4,1194.7c-10.8,33.6,7.7,69.6,41.3,80.3l403.4,129.3
			c31,9.9,63.9-5,77.3-33.8c0,0,0,0,0,0c79.1,4.7,154.5-44.3,179.8-123.3c25.3-78.8-7.3-162.3-74.1-204.6c0,0,0,0,0,0l74.2-231.4
			l39.3-122.6l113.8-354.9C924.2,300.3,905.7,264.3,872.1,253.5z M608.3,1285.3c-9.6-3.1-17.5-9.7-22.1-18.7
			c-4.6-9-5.5-19.2-2.4-28.8c3.1-9.6,9.7-17.5,18.7-22.1c5.4-2.8,11.3-4.2,17.3-4.2c3.9,0,7.8,0.6,11.6,1.8c16,5.1,26.3,20,26.3,36
			c0,3.8-0.6,7.7-1.8,11.5C649.5,1280.7,628.2,1291.7,608.3,1285.3z M634.4,1124.2c-1.3,3.9-4,7.1-7.6,9c-3.7,1.9-7.8,2.2-11.8,1
			c-3.9-1.3-7.1-4-9-7.6c-1.9-3.7-2.2-7.8-1-11.8c1.3-3.9,4-7.1,7.6-9c2.2-1.1,4.6-1.7,7-1.7c1.6,0,3.2,0.2,4.7,0.7
			c3.9,1.3,7.1,4,9,7.6c1.1,2.2,1.7,4.6,1.7,7C635.2,1121.1,634.9,1122.6,634.4,1124.2z M802.2,371.3l-289.7,903.7
			c-8.4,26.2-35.3,41.1-60,33.2l-264.1-84.7c-24.3-7.8-37.5-34.8-29.9-60.7c5.8,15.1,17.5,27.2,33.3,32.2l237.4,76.1
			c5.1,1.6,10.3,2.4,15.4,2.4c24.3,0,47.8-17.4,56.3-44.2l278.3-867.9c5.9-18.2,3.6-37-4.8-51.5
			C797.9,318.6,810.4,345.7,802.2,371.3z M106.1,500.5c-4.9-11.1-5.4-23.9-1.5-36.2l62-193.4c1.7,11.7,2.9,25.2,3.5,41.3l0.8,19.1
			l11.7-15.1c25.4-32.7,43.3-49.5,63.7-60c20.4-10.5,44.5-15.2,85.9-16.9l19.1-0.8l-15.1-11.7c-32.7-25.4-49.5-43.3-60-63.7
			c-2.4-4.7-4.5-9.6-6.4-14.9l470.9,151c21.8,7,33.1,33.1,25,58.1l-278.3,867.9c-8,25-32.3,39.7-54.2,32.7l-237.4-76.1
			c-21.4-6.9-32.6-31.6-25.6-56.4L289,755.2l0,0l4.3-13.5c4.5,2.4,9.3,4.4,14.3,6c0.9,0.3,1.8,0.5,2.7,0.8l-6.3,26.6l13.6,3.2
			l6.4-27c3.5,0.4,6.9,0.6,10.4,0.6c3.6,0,7.2-0.2,10.8-0.7c6.3,4.6,13.8,8.4,22,11c8,2.6,16.1,3.9,23.7,3.9c4.4,0,8.6-0.4,12.6-1.3
			c12.1-2.7,20.4-9.2,23.4-18.4c2.9-9.2,0-19.3-8.3-28.5c-2.6-2.9-5.6-5.6-9-8c3.7-6,6.6-12.4,8.7-19.1c7.2-22.4,5.2-46.2-5.6-67.2
			c-10.8-20.9-29-36.4-51.4-43.6c-19-6.1-39-5.6-57.3,1.2c-4.6-3.5-9.6-6.1-15.1-7.8l-159.3-51.1C119.2,519,110.8,511.2,106.1,500.5
			z M246.3,96c4.6,61.4,19.7,90.8,67,130.2c-61.3,4.6-90.8,19.7-130.2,67c-4.6-61.3-19.7-90.8-67-130.2
			C177.4,158.5,206.9,143.3,246.3,96z M264,641.3c6-18.8,19.1-34.2,36.6-43.2c1.5-0.8,3.1-1.5,4.7-2.2c-6.9,6-12.2,13.8-15.2,23.1
			c-7.7,24.1,3.2,49.7,24.9,61.2c0.3-2.2,0.7-4.3,1.4-6.5c5.9-18.5,25.8-28.7,44.3-22.8c8.4,2.7,15,8.2,19.3,15.1
			c3.5-4.6,6.3-9.8,8.1-15.6c4.8-14.8,2.4-30.2-5.1-42.5c7.1,6.1,13,13.6,17.4,22.1c9.1,17.6,10.7,37.7,4.7,56.5
			c-1.8,5.8-4.4,11.2-7.5,16.3c-3.2-1.5-6.5-2.8-10-3.9c-27.8-8.9-54-1.9-59.7,15.9c-2.4,7.4-0.9,15.5,4.2,23.2
			c-6.8-0.2-13.6-1.4-20.2-3.5C273,722,251.5,680.2,264,641.3z M346.6,733.9c-4.8-5.3-6.8-10.8-5.4-14.9c1.9-5.9,10.6-10,22.7-10
			c5.8,0,12.4,1,19.4,3.2c10.1,3.2,19.2,8.7,24.9,15.1c4.8,5.3,6.8,10.8,5.4,14.9c-1.3,4.2-6.1,7.5-13.1,9c-8.3,1.8-18.9,1-29-2.2
			C361.3,745.7,352.3,740.3,346.6,733.9z"/>
		<path class="st2" d="M405,686.5c-1.8,5.8-4.4,11.2-7.5,16.3c-3.2-1.5-6.5-2.8-10-3.9c-27.8-8.9-54-1.9-59.7,15.9
			c-2.4,7.4-0.9,15.5,4.2,23.2c-6.8-0.2-13.6-1.4-20.2-3.5C273,722,251.5,680.2,264,641.3c6-18.8,19.1-34.2,36.6-43.2
			c1.5-0.8,3.1-1.5,4.7-2.2c-6.9,6-12.2,13.8-15.2,23.1c-7.7,24.1,3.2,49.7,24.9,61.2c0.3-2.2,0.7-4.3,1.4-6.5
			c5.9-18.5,25.8-28.7,44.3-22.8c8.4,2.7,15,8.2,19.3,15.1c3.5-4.6,6.3-9.8,8.1-15.6c4.8-14.8,2.4-30.2-5.1-42.5
			c7.1,6.1,13,13.6,17.4,22.1C409.4,647.6,411,667.7,405,686.5z"/>
		<path class="st3" d="M635.2,1119.5c0,1.6-0.2,3.2-0.7,4.7c-1.3,3.9-4,7.1-7.6,9c-3.7,1.9-7.8,2.2-11.8,1c-3.9-1.3-7.1-4-9-7.6
			c-1.9-3.7-2.2-7.8-1-11.8c1.3-3.9,4-7.1,7.6-9c2.2-1.1,4.6-1.7,7-1.7c1.6,0,3.2,0.2,4.7,0.7c3.9,1.3,7.1,4,9,7.6
			C634.6,1114.6,635.2,1117.1,635.2,1119.5z"/>
		<path class="st3" d="M657.7,1249.3c0,3.8-0.6,7.7-1.8,11.5c-6.4,19.9-27.7,30.8-47.6,24.5c-9.6-3.1-17.5-9.7-22.1-18.7
			c-4.6-9-5.5-19.2-2.4-28.8c3.1-9.6,9.7-17.5,18.7-22.1c5.4-2.8,11.3-4.2,17.3-4.2c3.9,0,7.8,0.6,11.6,1.8
			C647.4,1218.4,657.7,1233.3,657.7,1249.3z"/>
		<path class="st3" d="M313.3,226.3c-61.3,4.6-90.8,19.7-130.2,67c-4.6-61.3-19.7-90.8-67-130.2c61.4-4.6,90.8-19.7,130.2-67
			C250.9,157.4,266,186.9,313.3,226.3z"/>
		<path class="st4" d="M473.3,861.1c-16-17.8-40.2-32.6-68.3-41.6c-18-5.8-36-8.7-52.8-8.7c-9.4,0-18.5,0.9-26.9,2.8
			c-22,4.9-36.7,15.7-41.4,30.3c-4.7,14.6,1,31.9,16.1,48.7c16,17.8,40.2,32.6,68.3,41.6c28.1,9,56.4,11.1,79.7,5.9
			c22-4.9,36.7-15.7,41.4-30.3C494.1,895.2,488.3,877.9,473.3,861.1z M441.2,891.2l-111.1-29.6l3.6-13.5l111.1,29.6L441.2,891.2z"/>
		<path class="st1" d="M413.5,742.2c-1.3,4.2-6.1,7.5-13.1,9c-8.3,1.8-18.9,1-29-2.2c-10.1-3.2-19.2-8.7-24.9-15.1
			c-4.8-5.3-6.8-10.8-5.4-14.9c1.9-5.9,10.6-10,22.7-10c5.8,0,12.4,1,19.4,3.2c10.1,3.2,19.2,8.7,24.9,15.1
			C412.9,732.6,414.9,738,413.5,742.2z"/>
		<path class="st4" d="M802.2,371.3l-289.7,903.7c-8.4,26.2-35.3,41.1-60,33.2l-264.1-84.7c-24.3-7.8-37.5-34.8-29.9-60.7
			c5.8,15.1,17.5,27.2,33.3,32.2l237.4,76.1c5.1,1.6,10.3,2.4,15.4,2.4c24.3,0,47.8-17.4,56.3-44.2l278.3-867.9
			c5.9-18.2,3.6-37-4.8-51.5C797.9,318.6,810.4,345.7,802.2,371.3z"/>
	</g>
</g>
<g id="general">
	<g id="general_3_">
		<g id="main_2_">
			<path d="M307.5,584.1l-9.4,10.4c-2.7-2.5-5.8-4.5-9-6c-1.4-0.7-2.9-1.2-4.4-1.7l-159.3-51.1c-14.3-4.6-25.7-15.1-32.1-29.6
				c-6.3-14.2-7-30.6-2-46.1L160.5,244l0.7-2.1l13.3,4.3l-7.9,24.7l-62,193.4c-3.9,12.3-3.4,25.1,1.5,36.2
				c4.8,10.8,13.1,18.6,23.6,21.9l159.3,51.1c5.5,1.8,10.6,4.4,15.1,7.8C305.2,582.2,306.3,583.1,307.5,584.1z"/>
			<path d="M776.9,296L265.3,132l-3.8-1.2l-4.3,13.3l12.6,4l470.9,151c21.8,7,33.1,33.1,25,58.1l-278.3,867.9
				c-8,25-32.3,39.7-54.2,32.7l-237.4-76.1c-21.4-6.9-32.6-31.6-25.6-56.4L289,755.2l0,0l4.3-13.5l2.7-8.4l-13.3-4.3l-1.6,4.8
				l-123.6,385.4c-0.2,0.7-0.4,1.4-0.6,2l-11.5,36c-10.8,33.6,6.6,69.2,38.6,79.5l264.1,84.7c5.9,1.9,11.9,2.8,17.8,2.8
				c26.2,0,51-17.7,59.8-45l289.7-903.7C826.3,342,809,306.3,776.9,296z M802.2,371.3l-289.7,903.7c-8.4,26.2-35.3,41.1-60,33.2
				l-264.1-84.7c-24.3-7.8-37.5-34.8-29.9-60.7c5.8,15.1,17.5,27.2,33.3,32.2l237.4,76.1c5.1,1.6,10.3,2.4,15.4,2.4
				c24.3,0,47.8-17.4,56.3-44.2l278.3-867.9c5.9-18.2,3.6-37-4.8-51.5C797.9,318.6,810.4,345.7,802.2,371.3z"/>
		</g>
		<path id="arrow" d="M572.6,372.7l-19.7,61.5c-4.5,14.1-17.1,23.3-30.2,23.3c-2.9,0-5.7-0.4-8.6-1.3l-195.9-62.8l31.9,72.8
			l-20.2,8.8l-45.7-104.3L381,313l11.3,18.9l-67.7,40.3l196.3,63c4.2,1.3,9.3-2.2,11.1-7.7l19.7-61.5c0.9-2.9,0.8-6-0.3-8.6
			c-0.5-1.2-1.8-3.4-4.2-4.1l-91.8-29.4l6.7-21l91.8,29.4c7.8,2.5,14.3,8.4,17.7,16.3C574.8,356,575.2,364.6,572.6,372.7z"/>
		<path id="star_2_" d="M336.2,226.7c-32.7-25.4-49.5-43.3-60-63.7c-2.4-4.7-4.5-9.6-6.4-14.9c-1.8-5-3.3-10.4-4.5-16.2
			c-3.2-14.5-5.1-32.1-6-54.8L258.5,58l-11.7,15.1c-25.4,32.7-43.3,49.5-63.7,60c-20.4,10.5-44.5,15.2-85.9,16.9l-19.1,0.8
			l15.1,11.7c32.7,25.4,49.5,43.3,60,63.7c2.9,5.5,5.3,11.3,7.3,17.7c2.6,7.9,4.6,16.7,6.1,26.9c1.7,11.7,2.9,25.2,3.5,41.3
			l0.8,19.1l11.7-15.1c25.4-32.7,43.3-49.5,63.7-60c20.4-10.5,44.5-15.2,85.9-16.9l19.1-0.8L336.2,226.7z M183.1,293.2
			c-4.6-61.3-19.7-90.8-67-130.2c61.4-4.6,90.8-19.7,130.2-67c4.6,61.4,19.7,90.8,67,130.2C251.9,230.8,222.5,246,183.1,293.2z"/>
		<g id="circles_2_">
			<path d="M635.7,1200c-27.2-8.7-56.4,6.3-65.2,33.5c-4.2,13.2-3.1,27.2,3.3,39.5c6.3,12.3,17.1,21.4,30.3,25.6
				c5.2,1.7,10.6,2.5,15.9,2.5c8.1,0,16.2-1.9,23.6-5.8c12.3-6.3,21.4-17.1,25.6-30.2v0C677.9,1237.9,662.9,1208.7,635.7,1200z
				 M655.9,1260.9c-6.4,19.9-27.7,30.8-47.6,24.5c-9.6-3.1-17.5-9.7-22.1-18.7c-4.6-9-5.5-19.2-2.4-28.8c3.1-9.6,9.7-17.5,18.7-22.1
				c5.4-2.8,11.3-4.2,17.3-4.2c3.9,0,7.8,0.6,11.6,1.8c16,5.1,26.3,20,26.3,36C657.7,1253.2,657.1,1257,655.9,1260.9z"/>
			<path d="M645.9,1106c-3.6-7-9.7-12.2-17.2-14.6c-7.5-2.4-15.4-1.7-22.4,1.8c-7,3.6-12.2,9.7-14.6,17.2
				c-2.4,7.5-1.7,15.4,1.8,22.4c3.6,7,9.7,12.2,17.2,14.6c2.9,0.9,6,1.4,9,1.4c4.6,0,9.2-1.1,13.4-3.3c3.5-1.8,6.5-4.2,9-7.1
				c2.5-2.9,4.4-6.3,5.6-10C650.2,1121,649.5,1113,645.9,1106z M634.4,1124.2c-1.3,3.9-4,7.1-7.6,9c-3.7,1.9-7.8,2.2-11.8,1
				c-3.9-1.3-7.1-4-9-7.6c-1.9-3.7-2.2-7.8-1-11.8c1.3-3.9,4-7.1,7.6-9c2.2-1.1,4.6-1.7,7-1.7c1.6,0,3.2,0.2,4.7,0.7
				c3.9,1.3,7.1,4,9,7.6c1.1,2.2,1.7,4.6,1.7,7C635.2,1121.1,634.9,1122.6,634.4,1124.2z"/>
		</g>
		<g id="face_2_">
			<path id="nose_2_" d="M418.5,717.9c-2.6-2.9-5.6-5.6-9-8c-3.6-2.7-7.7-5.1-12.1-7.1c-3.2-1.5-6.5-2.8-10-3.9
				c-27.8-8.9-54-1.9-59.7,15.9c-2.4,7.4-0.9,15.5,4.2,23.2c1.2,1.8,2.6,3.6,4.1,5.3c2.6,2.9,5.6,5.6,9,8.1c6.3,4.6,13.8,8.4,22,11
				c8,2.6,16.1,3.9,23.7,3.9c4.4,0,8.6-0.4,12.6-1.3c12.1-2.7,20.4-9.2,23.4-18.4C429.8,737.3,426.8,727.2,418.5,717.9z
				 M413.5,742.2c-1.3,4.2-6.1,7.5-13.1,9c-8.3,1.8-18.9,1-29-2.2c-10.1-3.2-19.2-8.7-24.9-15.1c-4.8-5.3-6.8-10.8-5.4-14.9
				c1.9-5.9,10.6-10,22.7-10c5.8,0,12.4,1,19.4,3.2c10.1,3.2,19.2,8.7,24.9,15.1C412.9,732.6,414.9,738,413.5,742.2z"/>
			<g id="brows_2_">
				<rect x="592.1" y="512.7" transform="matrix(0.5544 -0.8323 0.8323 0.5544 -203.4356 750.4582)" width="14" height="105.1"/>
				<polygon points="428.5,552.5 424.3,565.9 309.6,529.9 313.7,516.5 				"/>
			</g>
			<g id="eyes_2_">
				<path d="M418.3,690.8c-2.2,6.8-5.1,13.2-8.7,19.1c-1.3,2.1-2.7,4.1-4.1,6.1l-11.3-8.3c1.2-1.6,2.3-3.2,3.3-4.9
					c3.1-5.1,5.6-10.5,7.5-16.3c6-18.8,4.4-38.9-4.7-56.5c-4.4-8.6-10.3-16-17.4-22.1c7.5,12.3,9.8,27.7,5.1,42.5
					c-1.8,5.8-4.6,11-8.1,15.6c-4.2-6.9-10.9-12.4-19.3-15.1c-18.5-5.9-38.4,4.3-44.3,22.8c-0.7,2.2-1.2,4.3-1.4,6.5
					c-21.6-11.5-32.6-37.1-24.9-61.2c3-9.3,8.3-17.1,15.2-23.1c-1.6,0.7-3.1,1.4-4.7,2.2c-17.6,9-30.6,24.4-36.6,43.2
					c-12.5,38.9,9,80.7,47.9,93.1c6.6,2.1,13.4,3.3,20.2,3.5c4.6,0.1,9.3-0.1,14-0.9l2.2,13.8c-1,0.2-2,0.3-3,0.4
					c-3.6,0.4-7.2,0.7-10.8,0.7c-3.5,0-7-0.2-10.4-0.6l-6.4,27l-13.6-3.2l6.3-26.6c-0.9-0.3-1.8-0.5-2.7-0.8c-5-1.6-9.8-3.6-14.3-6
					c-4.3-2.3-8.4-4.9-12.2-7.8c-2.4-1.8-4.7-3.8-6.9-5.8l-18.6,18.1l-9.8-10l18.9-18.4c-6.9-9-12.1-19.2-15.1-30.2l-26.9,5.2
					l-2.6-13.8l26.8-5.2c-1.4-12-0.3-24.5,3.6-36.8c6.6-20.5,20.1-37.5,38.4-48.5c1.7-1,3.4-2,5.2-2.9c3.2-1.7,6.5-3.1,9.8-4.3
					c18.4-6.8,38.4-7.3,57.3-1.2c22.4,7.2,40.7,22.6,51.4,43.6C423.5,644.5,425.5,668.4,418.3,690.8z"/>
				<path d="M617.2,751.5c7.2-22.4,5.2-46.2-5.6-67.2c-10.8-20.9-29-36.4-51.4-43.6c-22.4-7.2-46.2-5.2-67.2,5.5
					c-20.9,10.8-36.4,29-43.6,51.4c-7.2,22.4-5.2,46.2,5.6,67.2c8.2,15.9,20.6,28.6,36,37l-10.5,25.7l13,5.3l10.3-25.3
					c0.9,0.3,1.8,0.6,2.6,0.9c8.9,2.8,17.9,4.2,27,4.2c3.9,0,7.7-0.3,11.6-0.8l4.6,25.5l13.8-2.5l-4.7-25.9c5.1-1.5,10.1-3.6,14.9-6
					c5.4-2.8,10.4-6,15-9.7l18.8,19.8l10.2-9.6l-18.8-19.8C607,774.5,613.3,763.6,617.2,751.5z M567.2,790.5
					c-17.6,9-37.7,10.7-56.5,4.7c-18.8-6-34.2-19-43.2-36.6c-9.1-17.6-10.7-37.6-4.7-56.5c5.5-17.2,16.9-31.5,32.2-40.7
					c-5.1,5.4-9.2,12.1-11.6,19.7c-7.7,24.1,3.2,49.7,24.9,61.2c0.3-2.2,0.7-4.3,1.4-6.5c5.9-18.5,25.8-28.7,44.3-22.8
					c8.4,2.7,15,8.2,19.3,15.1c3.5-4.6,6.3-9.8,8.1-15.6c6.3-19.7,0.1-40.4-14.2-53.6c13.7,7,24.8,18,32,32
					c9.1,17.6,10.7,37.7,4.7,56.5C597.8,766.1,584.8,781.5,567.2,790.5z"/>
				<path class="st2" d="M603.9,747.3c-6,18.8-19,34.2-36.6,43.2s-37.7,10.7-56.5,4.7c-18.8-6-34.2-19-43.2-36.6
					c-9.1-17.6-10.7-37.6-4.7-56.5c5.5-17.2,16.9-31.5,32.2-40.7c-5.1,5.4-9.2,12.1-11.6,19.7c-7.7,24.1,3.2,49.7,24.9,61.2
					c0.3-2.2,0.7-4.3,1.4-6.5c5.9-18.5,25.8-28.7,44.3-22.8c8.4,2.7,15,8.2,19.3,15.1c3.5-4.6,6.3-9.8,8.1-15.6
					c6.3-19.7,0.1-40.4-14.2-53.6c13.7,7,24.8,18,32,32C608.2,708.4,609.9,728.4,603.9,747.3z"/>
			</g>
			<g id="mouth_2_">
				<path d="M483.7,851.8c-17.6-19.6-44-35.8-74.4-45.5c-30.4-9.7-61.3-12-87-6.2c-27.1,6-45.4,20.1-51.7,39.7
					c-6.3,19.6,0.5,41.7,19,62.3c17.6,19.6,44,35.8,74.4,45.5c19.3,6.2,38.9,9.3,57.1,9.3c10.5,0,20.5-1,29.9-3.1
					c27.1-6,45.4-20.1,51.7-39.7C509,894.6,502.2,872.4,483.7,851.8z M489.4,909.9c-4.7,14.6-19.4,25.4-41.4,30.3
					c-23.4,5.2-51.7,3.1-79.7-5.9c-28.1-9-52.3-23.8-68.3-41.6c-15.1-16.8-20.8-34.1-16.1-48.7c4.7-14.6,19.4-25.4,41.4-30.3
					c8.4-1.9,17.5-2.8,26.9-2.8c16.8,0,34.9,2.9,52.8,8.7c28.1,9,52.3,23.8,68.3,41.6C488.3,877.9,494.1,895.2,489.4,909.9z"/>
				<polygon points="444.8,877.7 441.2,891.2 330.1,861.6 333.7,848.1 				"/>
			</g>
		</g>
	</g>
</g>
</svg>
