<?xml version="1.0" encoding="utf-8"?>
<!-- Generator: Adobe Illustrator 24.0.3, SVG Export Plug-In . SVG Version: 6.00 Build 0)  -->
<!DOCTYPE svg PUBLIC "-//W3C//DTD SVG 1.1//EN" "http://www.w3.org/Graphics/SVG/1.1/DTD/svg11.dtd" [
	<!ENTITY ns_extend "http://ns.adobe.com/Extensibility/1.0/">
	<!ENTITY ns_ai "http://ns.adobe.com/AdobeIllustrator/10.0/">
	<!ENTITY ns_graphs "http://ns.adobe.com/Graphs/1.0/">
	<!ENTITY ns_vars "http://ns.adobe.com/Variables/1.0/">
	<!ENTITY ns_imrep "http://ns.adobe.com/ImageReplacement/1.0/">
	<!ENTITY ns_sfw "http://ns.adobe.com/SaveForWeb/1.0/">
	<!ENTITY ns_custom "http://ns.adobe.com/GenericCustomNamespace/1.0/">
	<!ENTITY ns_adobe_xpath "http://ns.adobe.com/XPath/1.0/">
]>
<svg version="1.1" xmlns:x="&ns_extend;" xmlns:i="&ns_ai;" xmlns:graph="&ns_graphs;"
	 xmlns="http://www.w3.org/2000/svg" xmlns:xlink="http://www.w3.org/1999/xlink" x="0px" y="0px" viewBox="0 0 1365.5 1114.8"
	 style="enable-background:new 0 0 1365.5 1114.8;" xml:space="preserve">
<style type="text/css">
	.st0{fill:#FFCD00;}
	.st1{fill:#FFFFFF;}
	.st2{fill:#E3E3E3;}
	.st3{fill:#FF4500;}
	.st4{fill:#1FA2C3;}
</style>
<metadata>
	<sfw  xmlns="&ns_sfw;">
		<slices></slices>
		<sliceSourceBounds  bottomLeftOrigin="true" height="1114.8" width="1365.5" x="48" y="-1301.3"></sliceSourceBounds>
	</sfw>
</metadata>
<g id="background_1_">
	<g id="background">
		<path class="st0" d="M528.8,839.8c-8.2-6.8-18.3-1.1-28.9,4.9c-11.6,6.5-25.9,14.6-44.5,14.6H455c-27.9-0.2-49.1-10.3-62.1-18.8
			l-7.7,11.7c14.5,9.5,38.4,20.8,69.6,21h0.6c22.2,0,39.1-9.5,51.4-16.4c4.7-2.7,11-6.3,13.2-6.2c2.9,3,0.6,22.4-11.7,37.9
			c-22.9,28.8-68.1,20.9-70,20.6l-2.5,13.8c0.8,0.2,7.9,1.4,18.1,1.4c18.6,0,47.3-4.2,65.4-27C532.2,881.2,542.2,850.8,528.8,839.8z
			 M528.8,839.8c-8.2-6.8-18.3-1.1-28.9,4.9c-11.6,6.5-25.9,14.6-44.5,14.6H455c-27.9-0.2-49.1-10.3-62.1-18.8l-7.7,11.7
			c14.5,9.5,38.4,20.8,69.6,21h0.6c22.2,0,39.1-9.5,51.4-16.4c4.7-2.7,11-6.3,13.2-6.2c2.9,3,0.6,22.4-11.7,37.9
			c-22.9,28.8-68.1,20.9-70,20.6l-2.5,13.8c0.8,0.2,7.9,1.4,18.1,1.4c18.6,0,47.3-4.2,65.4-27C532.2,881.2,542.2,850.8,528.8,839.8z
			 M528.8,839.8c-8.2-6.8-18.3-1.1-28.9,4.9c-11.6,6.5-25.9,14.6-44.5,14.6H455c-27.9-0.2-49.1-10.3-62.1-18.8l-7.7,11.7
			c14.5,9.5,38.4,20.8,69.6,21h0.6c22.2,0,39.1-9.5,51.4-16.4c4.7-2.7,11-6.3,13.2-6.2c2.9,3,0.6,22.4-11.7,37.9
			c-22.9,28.8-68.1,20.9-70,20.6l-2.5,13.8c0.8,0.2,7.9,1.4,18.1,1.4c18.6,0,47.3-4.2,65.4-27C532.2,881.2,542.2,850.8,528.8,839.8z
			 M528.8,839.8c-8.2-6.8-18.3-1.1-28.9,4.9c-11.6,6.5-25.9,14.6-44.5,14.6H455c-27.9-0.2-49.1-10.3-62.1-18.8l-7.7,11.7
			c14.5,9.5,38.4,20.8,69.6,21h0.6c22.2,0,39.1-9.5,51.4-16.4c4.7-2.7,11-6.3,13.2-6.2c2.9,3,0.6,22.4-11.7,37.9
			c-22.9,28.8-68.1,20.9-70,20.6l-2.5,13.8c0.8,0.2,7.9,1.4,18.1,1.4c18.6,0,47.3-4.2,65.4-27C532.2,881.2,542.2,850.8,528.8,839.8z
			 M528.8,839.8c-8.2-6.8-18.3-1.1-28.9,4.9c-11.6,6.5-25.9,14.6-44.5,14.6H455c-27.9-0.2-49.1-10.3-62.1-18.8l-7.7,11.7
			c14.5,9.5,38.4,20.8,69.6,21h0.6c22.2,0,39.1-9.5,51.4-16.4c4.7-2.7,11-6.3,13.2-6.2c2.9,3,0.6,22.4-11.7,37.9
			c-22.9,28.8-68.1,20.9-70,20.6l-2.5,13.8c0.8,0.2,7.9,1.4,18.1,1.4c18.6,0,47.3-4.2,65.4-27C532.2,881.2,542.2,850.8,528.8,839.8z
			 M528.8,839.8c-8.2-6.8-18.3-1.1-28.9,4.9c-11.6,6.5-25.9,14.6-44.5,14.6H455c-27.9-0.2-49.1-10.3-62.1-18.8l-7.7,11.7
			c14.5,9.5,38.4,20.8,69.6,21h0.6c22.2,0,39.1-9.5,51.4-16.4c4.7-2.7,11-6.3,13.2-6.2c2.9,3,0.6,22.4-11.7,37.9
			c-22.9,28.8-68.1,20.9-70,20.6l-2.5,13.8c0.8,0.2,7.9,1.4,18.1,1.4c18.6,0,47.3-4.2,65.4-27C532.2,881.2,542.2,850.8,528.8,839.8z
			 M1313.2,351.9c-15.1-6.8-30.4-13.8-45.7-21c-3.9-86-74.9-154.5-161.8-154.5c-32.5,0-62.8,9.6-88.1,26
			C908,129.6,825.7,80.4,770.5,48.8C754.2,39.5,746,35,733.6,30.4C664.6,4.5,609.8,28,481,54.2c-25.7,5.2-63.7,12.5-110.5,19.5
			C334.5,28.8,279.3,0,217.3,0C108.9,0,21.1,87.8,21.1,196.1c0,32,7.7,62.2,21.2,88.9c-6.1,6.1-12.1,12.1-17.7,18.1
			c-41,42.9-29.2,113.2,23.6,140.3c34.8,17.8,69.6,35.7,104.4,53.5c29.6,15.2,48.2,45.6,48.2,78.9V632
			c-18.6,26.4-29.6,58.6-29.6,93.3c0,34.8,11,66.9,29.6,93.3v100.4c0,26.8,12.2,52.2,33.1,69.1c58.3,46.9,195.9,130.5,431.1,123
			c128-4.1,226.5-28.9,298.9-57.5c31.6,37.3,78.8,61,131.5,61c95.1,0,172.3-77.1,172.3-172.3c0-85-61.6-155.6-142.5-169.7V671.9
			c0-32.2,17.4-61.8,45.6-77.5c49.7-27.7,99.4-55.3,149.1-83c26.3-14.7,43.4-41.7,45.4-71.7c0-0.4,0.1-0.7,0.1-1.1
			C1367.8,401.6,1347,367.1,1313.2,351.9z M497.9,992c-63.2-13.4-111.9-35.9-141.5-52.5c-25.4-14.2-41.6-26.6-47.4-31.2l-0.7-78.1
			c5.8,1.5,11.8,2.3,17.8,2.3c11,0,21.7-2.5,31.9-7.6c11.3,7,26.7,11.3,43.8,11.3c35.8,0,63.9-18.7,63.9-42.5
			c0-21.8-23.5-39.3-55-42.1c2.3-10.1,3.5-20.7,3.5-31.4c0-62-39.5-112.4-88-112.4c-6.7,0-13.3,1-19.7,2.8l-0.2-27.4l30.7-13.2
			l-5.5-12.9L306.1,568l-0.5-62.7c54.4,34.5,106.1,73.3,157,111.5c16.2,12.2,32.9,24.7,49.6,37c-0.3,0.3-0.5,0.7-0.8,1
			c-16.2,21.1-25.2,49.1-25.2,78.8s8.9,57.7,25.2,78.8c16.6,21.7,39,33.6,62.8,33.6c7.5,0,14.8-1.2,21.9-3.5l11.2,23.5l12.6-6
			l-11-23c10.2-5.6,19.5-13.6,27.6-24l26.5,15.1l6.9-12.2l-25.5-14.6c3.7-6.2,6.9-12.9,9.4-19.9l28.7,4.3l2.1-13.8l-26.7-4
			c1.2-4.7,2.1-9.5,2.8-14.4c0.2,0.1,0.4,0.2,0.5,0.3l3.7,2.1l3.6-2.3c83.1-52.9,176.3-90,266.5-125.9c2.1-0.8,4.3-1.7,6.4-2.6
			l-4.4,77.4c-14.8,3.2-25.9,16.4-25.9,32.2c0,3.7,0.6,7.3,1.8,10.7l-63.1,63.1l9.9,9.9l60.7-60.7c4.4,4.6,10.2,7.9,16.6,9.3v86.4
			h14v-86.4c6.5-1.4,12.2-4.7,16.6-9.3l41.1,41.1l0,77.6C911.5,937,814.3,976.5,719.9,993.7C643.6,1007.6,568.9,1007,497.9,992z
			 M252.2,720.1c0-54.2,33.2-98.4,74-98.4c5.6,0,11,0.8,16.2,2.4c-1-0.1-2.1-0.1-3.2-0.1c-29.6,0-54.1,21.5-58.9,49.7
			c3.4-1.4,7.2-2.2,11.1-2.2c16.5,0,29.9,13.4,29.9,29.9c0,13.2-8.5,24.3-20.3,28.3c10.4,8.6,23.7,13.8,38.2,13.8
			c29,0,53.2-20.7,58.6-48.1c1.5,7.9,2.4,16.2,2.4,24.7c0,10.7-1.3,21.2-3.8,31.2c-33.2,1.8-58.4,19.8-58.4,42.4
			c0,7.8,3,15,8.2,21.2c-6.5,2.4-13.1,3.6-20,3.6C285.3,818.5,252.2,774.3,252.2,720.1z M1039.3,288.1c9.1,0,16.5,7.4,16.5,16.5
			c0,9.1-7.4,16.5-16.5,16.5s-16.5-7.4-16.5-16.5C1022.8,295.5,1030.2,288.1,1039.3,288.1z M1125.2,240c18.1,0,32.8,14.7,32.8,32.8
			c0,18.1-14.7,32.8-32.8,32.8c-18.1,0-32.8-14.7-32.8-32.8C1092.4,254.7,1107.1,240,1125.2,240z M951,702.5l4.7-83.1
			c17.6-7,35.3-14.2,53-21.5l0,180.9l-33.5-33.5c1.1-3.4,1.8-6.9,1.8-10.7C977,718.9,965.9,705.7,951,702.5z M574.1,635.2
			c0.9,0,1.8,0,2.8,0.1c-23,5.6-40.8,24.4-44.8,48c3.4-1.4,7.2-2.1,11.1-2.1c16.5,0,29.9,13.4,29.9,29.9c0,13.2-8.5,24.3-20.3,28.3
			c10.4,8.6,23.7,13.8,38.2,13.8c25.4,0,47.1-15.9,55.8-38.2c0.9,6.1,1.4,12.3,1.4,18.7c0,54.2-33.2,98.4-74,98.4
			c-40.8,0-74-44.1-74-98.4C500.1,679.3,533.3,635.2,574.1,635.2z M661,715.5c0.1,0.1,0.2,0.1,0.2,0.1l3.7,2.1l3.6-2.3
			c83.1-52.9,176.3-90,266.5-125.9c2.9-1.2,5.8-2.3,8.6-3.4l-1.3,23.5c-4.2,1.7-8.3,3.3-12.5,5c-89.5,35.6-182,72.4-265.3,124.8
			c-0.9-0.5-1.7-1-2.5-1.5c0-1.5,0.1-3,0.1-4.5C662.1,727.5,661.7,721.5,661,715.5z M956.6,604l1.3-23.5
			c96.7-38.6,195.1-79.9,281.6-142.3c-0.1,1.8-0.1,3.6-0.1,5.4c0.1,4.8,0.5,9.7,1.2,14.5C1154.5,522.5,1054.8,564.7,956.6,604z
			 M958.8,565c1.3-25.9-11.7-50.1-34.1-63.2L737.3,391.8l-7.1,12.1l187.5,109.9c17.9,10.5,28.4,30,27.2,50.8l-0.4,6.2
			c-4.9,2-9.8,3.9-14.7,5.9c-89.5,35.6-182,72.4-265.3,124.8c-2.4-1.4-4.8-2.8-7.1-4.2c-4.2-15.8-11.1-30.3-20.5-42.5
			c-16.6-21.7-39-33.6-62.8-33.6c-8.5,0-16.8,1.5-24.7,4.4c-26.4-19-52.9-38.9-78.6-58.1C370.3,492,266.5,414.1,144.3,370.7
			c28-23.7,58.3-45.6,90.2-65.3c9.6,9.9,19.5,21.3,30.3,34.6l10.6,13.1l1.8-16.8c2.5-23.6,5.6-43.4,10.1-60.8
			c40.4-20.9,84.5-39.5,131.3-55.3c53.1-18,108.6-30.5,162.4-42.6c39.6-8.9,80.6-18.2,120.5-29.6c42.8,26.2,84.9,54.9,125.7,82.7
			c46.7,31.8,95,64.8,144.7,94.2c74.7,44.2,161.7,91.7,257.2,103.6C1146.2,487.7,1051.9,527.8,958.8,565z M265.2,318.5
			c-50.6-59.6-87.7-79.8-165.2-89.8c59.6-50.6,79.8-87.7,89.8-165.2c50.6,59.6,87.7,79.8,165.2,89.8
			C295.4,203.9,275.2,241,265.2,318.5z M137.2,383c121.2,42.5,224.9,120.3,325.3,195.6c23.8,17.8,48.2,36.2,72.8,54
			c-4.8,3-9.4,6.6-13.7,10.7c-17-12.5-34.1-25.3-50.6-37.8c-102.5-76.9-208.5-156.4-333.8-199.3V383z M351.9,793.6
			c0-15.5,22.9-28.5,49.9-28.5c27,0,49.9,13.1,49.9,28.5c0,15.5-22.8,28.5-49.9,28.5C374.7,822.2,351.9,809.1,351.9,793.6z
			 M1130.3,882.9c5.9,44.4,18.3,67.8,51.6,97.7c-44.4,5.9-67.8,18.3-97.7,51.6c-5.9-44.4-18.3-67.8-51.6-97.7
			C1076.9,928.6,1100.3,916.2,1130.3,882.9z M528.8,839.8c-8.2-6.8-18.3-1.1-28.9,4.9c-11.6,6.5-25.9,14.6-44.5,14.6H455
			c-27.9-0.2-49.1-10.3-62.1-18.8l-7.7,11.7c14.5,9.5,38.4,20.8,69.6,21h0.6c22.2,0,39.1-9.5,51.4-16.4c4.7-2.7,11-6.3,13.2-6.2
			c2.9,3,0.6,22.4-11.7,37.9c-22.9,28.8-68.1,20.9-70,20.6l-2.5,13.8c0.8,0.2,7.9,1.4,18.1,1.4c18.6,0,47.3-4.2,65.4-27
			C532.2,881.2,542.2,850.8,528.8,839.8z M528.8,839.8c-8.2-6.8-18.3-1.1-28.9,4.9c-11.6,6.5-25.9,14.6-44.5,14.6H455
			c-27.9-0.2-49.1-10.3-62.1-18.8l-7.7,11.7c14.5,9.5,38.4,20.8,69.6,21h0.6c22.2,0,39.1-9.5,51.4-16.4c4.7-2.7,11-6.3,13.2-6.2
			c2.9,3,0.6,22.4-11.7,37.9c-22.9,28.8-68.1,20.9-70,20.6l-2.5,13.8c0.8,0.2,7.9,1.4,18.1,1.4c18.6,0,47.3-4.2,65.4-27
			C532.2,881.2,542.2,850.8,528.8,839.8z M528.8,839.8c-8.2-6.8-18.3-1.1-28.9,4.9c-11.6,6.5-25.9,14.6-44.5,14.6H455
			c-27.9-0.2-49.1-10.3-62.1-18.8l-7.7,11.7c14.5,9.5,38.4,20.8,69.6,21h0.6c22.2,0,39.1-9.5,51.4-16.4c4.7-2.7,11-6.3,13.2-6.2
			c2.9,3,0.6,22.4-11.7,37.9c-22.9,28.8-68.1,20.9-70,20.6l-2.5,13.8c0.8,0.2,7.9,1.4,18.1,1.4c18.6,0,47.3-4.2,65.4-27
			C532.2,881.2,542.2,850.8,528.8,839.8z M528.8,839.8c-8.2-6.8-18.3-1.1-28.9,4.9c-11.6,6.5-25.9,14.6-44.5,14.6H455
			c-27.9-0.2-49.1-10.3-62.1-18.8l-7.7,11.7c14.5,9.5,38.4,20.8,69.6,21h0.6c22.2,0,39.1-9.5,51.4-16.4c4.7-2.7,11-6.3,13.2-6.2
			c2.9,3,0.6,22.4-11.7,37.9c-22.9,28.8-68.1,20.9-70,20.6l-2.5,13.8c0.8,0.2,7.9,1.4,18.1,1.4c18.6,0,47.3-4.2,65.4-27
			C532.2,881.2,542.2,850.8,528.8,839.8z M528.8,839.8c-8.2-6.8-18.3-1.1-28.9,4.9c-11.6,6.5-25.9,14.6-44.5,14.6H455
			c-27.9-0.2-49.1-10.3-62.1-18.8l-7.7,11.7c14.5,9.5,38.4,20.8,69.6,21h0.6c22.2,0,39.1-9.5,51.4-16.4c4.7-2.7,11-6.3,13.2-6.2
			c2.9,3,0.6,22.4-11.7,37.9c-22.9,28.8-68.1,20.9-70,20.6l-2.5,13.8c0.8,0.2,7.9,1.4,18.1,1.4c18.6,0,47.3-4.2,65.4-27
			C532.2,881.2,542.2,850.8,528.8,839.8z M528.8,839.8c-8.2-6.8-18.3-1.1-28.9,4.9c-11.6,6.5-25.9,14.6-44.5,14.6H455
			c-27.9-0.2-49.1-10.3-62.1-18.8l-7.7,11.7c14.5,9.5,38.4,20.8,69.6,21h0.6c22.2,0,39.1-9.5,51.4-16.4c4.7-2.7,11-6.3,13.2-6.2
			c2.9,3,0.6,22.4-11.7,37.9c-22.9,28.8-68.1,20.9-70,20.6l-2.5,13.8c0.8,0.2,7.9,1.4,18.1,1.4c18.6,0,47.3-4.2,65.4-27
			C532.2,881.2,542.2,850.8,528.8,839.8z M528.8,839.8c-8.2-6.8-18.3-1.1-28.9,4.9c-11.6,6.5-25.9,14.6-44.5,14.6H455
			c-27.9-0.2-49.1-10.3-62.1-18.8l-7.7,11.7c14.5,9.5,38.4,20.8,69.6,21h0.6c22.2,0,39.1-9.5,51.4-16.4c4.7-2.7,11-6.3,13.2-6.2
			c2.9,3,0.6,22.4-11.7,37.9c-22.9,28.8-68.1,20.9-70,20.6l-2.5,13.8c0.8,0.2,7.9,1.4,18.1,1.4c18.6,0,47.3-4.2,65.4-27
			C532.2,881.2,542.2,850.8,528.8,839.8z"/>
		<path class="st1" d="M400.1,720.1c0,10.7-1.3,21.2-3.8,31.2c-33.2,1.8-58.4,19.8-58.4,42.4c0,7.8,3,15,8.2,21.2
			c-6.5,2.4-13.1,3.6-20,3.6c-40.8,0-74-44.1-74-98.4c0-54.2,33.2-98.4,74-98.4c5.6,0,11,0.8,16.2,2.4c-1-0.1-2.1-0.1-3.2-0.1
			c-29.6,0-54.1,21.5-58.9,49.7c3.4-1.4,7.2-2.2,11.1-2.2c16.5,0,29.9,13.4,29.9,29.9c0,13.2-8.5,24.3-20.3,28.3
			c10.4,8.6,23.7,13.8,38.2,13.8c29,0,53.2-20.7,58.6-48.1C399.3,703.3,400.1,711.6,400.1,720.1z"/>
		<path class="st2" d="M975.2,745.3c1.1-3.4,1.8-6.9,1.8-10.7c0-15.8-11.1-29-26-32.2l4.7-83.1c17.6-7,35.3-14.2,53-21.5l0,180.9
			L975.2,745.3z"/>
		<path class="st2" d="M1008.7,798.6l-41.1-41.1c-4.4,4.6-10.2,7.9-16.6,9.3v86.4h-14v-86.4c-6.4-1.4-12.2-4.7-16.6-9.3l-60.7,60.7
			l-9.9-9.9l63.1-63.1c-1.1-3.4-1.8-6.9-1.8-10.7c0-15.7,11.1-28.9,25.9-32.2l4.4-77.4c-2.1,0.9-4.3,1.7-6.4,2.6
			c-90.2,35.9-183.5,73-266.5,125.9l-3.6,2.3l-3.7-2.1c-0.2-0.1-0.4-0.2-0.5-0.3c-0.7,4.9-1.6,9.7-2.8,14.4l26.7,4l-2.1,13.8
			l-28.7-4.3c-2.6,7-5.7,13.7-9.4,19.9l25.5,14.6l-6.9,12.2l-26.5-15.1c-8.1,10.3-17.4,18.4-27.6,24l11,23l-12.6,6L596,842.5
			c-7.1,2.3-14.4,3.5-21.9,3.5c-23.8,0-46.1-11.9-62.8-33.6c-16.2-21.1-25.2-49.1-25.2-78.8s8.9-57.7,25.2-78.8
			c0.3-0.3,0.5-0.7,0.8-1c-16.6-12.3-33.4-24.8-49.6-37c-50.8-38.2-102.6-77-157-111.5l0.5,62.7l25.3-10.9l5.5,12.9l-30.7,13.2
			l0.2,27.4c6.4-1.8,13-2.8,19.7-2.8c48.5,0,88,50.4,88,112.4c0,10.7-1.2,21.3-3.5,31.4c31.5,2.8,55,20.3,55,42.1
			c0,23.8-28.1,42.5-63.9,42.5c-17.1,0-32.4-4.2-43.8-11.3c-10.1,5-20.8,7.6-31.9,7.6c-6.1,0-12-0.8-17.8-2.3l0.7,78.1
			c5.8,4.6,22,17,47.4,31.2c29.7,16.6,78.3,39.1,141.5,52.5c71.1,15,145.8,15.6,222,1.7c94.5-17.2,191.6-56.7,288.9-117.5
			L1008.7,798.6z M519.4,897.3c-18.1,22.8-46.8,27-65.4,27c-10.1,0-17.3-1.2-18.1-1.4l2.5-13.8c1.9,0.3,47.1,8.2,70-20.6
			c12.3-15.5,14.6-34.9,11.7-37.9c-2.2-0.1-8.6,3.5-13.2,6.2c-12.3,7-29.1,16.4-51.4,16.4h-0.6c-31.3-0.2-55.1-11.6-69.6-21
			l7.7-11.7c12.9,8.4,34.2,18.6,62.1,18.8h0.5c18.6,0,32.9-8.1,44.5-14.6c10.6-6,20.6-11.7,28.9-4.9
			C542.2,850.8,532.2,881.2,519.4,897.3z"/>
		<path class="st2" d="M1240.7,458.1c-86.1,64.4-185.9,106.6-284,145.9l1.3-23.5c96.7-38.6,195.1-79.9,281.6-142.3
			c-0.1,1.8-0.1,3.6-0.1,5.4C1239.5,448.4,1239.9,453.3,1240.7,458.1z"/>
		<path class="st2" d="M462.5,578.7c23.8,17.8,48.2,36.2,72.8,54c-4.8,3-9.4,6.6-13.7,10.7c-17-12.5-34.1-25.3-50.6-37.8
			c-102.5-76.9-208.5-156.4-333.8-199.3V383C258.4,425.6,362.1,503.4,462.5,578.7z"/>
		<path class="st2" d="M943.6,586.2l-1.3,23.5c-4.2,1.7-8.3,3.3-12.5,5c-89.5,35.6-182,72.4-265.3,124.8c-0.9-0.5-1.7-1-2.5-1.5
			c0-1.5,0.1-3,0.1-4.5c0-6.1-0.4-12.1-1.1-18c0.1,0.1,0.2,0.1,0.2,0.1l3.7,2.1l3.6-2.3c83.1-52.9,176.3-90,266.5-125.9
			C937.9,588.5,940.7,587.3,943.6,586.2z"/>
		<path class="st2" d="M958.8,565c1.3-25.9-11.7-50.1-34.1-63.2L737.3,391.8l-7.1,12.1l187.5,109.9c17.9,10.5,28.4,30,27.2,50.8
			l-0.4,6.2c-4.9,2-9.8,3.9-14.7,5.9c-89.5,35.6-182,72.4-265.3,124.8c-2.4-1.4-4.8-2.8-7.1-4.2c-4.2-15.8-11.1-30.3-20.5-42.5
			c-16.6-21.7-39-33.6-62.8-33.6c-8.5,0-16.8,1.5-24.7,4.4c-26.4-19-52.9-38.9-78.6-58.1C370.3,492,266.5,414.1,144.3,370.7
			c28-23.7,58.3-45.6,90.2-65.3c9.6,9.9,19.5,21.3,30.3,34.6l10.6,13.1l1.8-16.8c2.5-23.6,5.6-43.4,10.1-60.8
			c40.4-20.9,84.5-39.5,131.3-55.3c53.1-18,108.6-30.5,162.4-42.6c39.6-8.9,80.6-18.2,120.5-29.6c42.8,26.2,84.9,54.9,125.7,82.7
			c46.7,31.8,95,64.8,144.7,94.2c74.7,44.2,161.7,91.7,257.2,103.6C1146.2,487.7,1051.9,527.8,958.8,565z"/>
		<ellipse class="st3" cx="401.8" cy="793.6" rx="49.9" ry="28.5"/>
		<path class="st4" d="M1158,272.8c0,18.1-14.7,32.8-32.8,32.8c-18.1,0-32.8-14.7-32.8-32.8c0-18.1,14.7-32.8,32.8-32.8
			C1143.3,240,1158,254.7,1158,272.8z"/>
		<path class="st4" d="M1055.8,304.6c0,9.1-7.4,16.5-16.5,16.5s-16.5-7.4-16.5-16.5c0-9.1,7.4-16.5,16.5-16.5
			S1055.8,295.5,1055.8,304.6z"/>
		<path class="st3" d="M1181.9,980.6c-44.4,5.9-67.8,18.3-97.7,51.6c-5.9-44.4-18.3-67.8-51.6-97.7c44.4-5.9,67.8-18.3,97.8-51.6
			C1136.2,927.3,1148.5,950.7,1181.9,980.6z"/>
		<path class="st3" d="M355,153.3c-59.6,50.6-79.8,87.7-89.8,165.2c-50.6-59.6-87.7-79.8-165.2-89.8c59.6-50.6,79.8-87.7,89.8-165.2
			C240.4,123.1,277.5,143.2,355,153.3z"/>
	</g>
</g>
<g id="general">
	<g id="general_3_">
		<g id="main_2_">
			<path d="M1255.2,459.7l0.9,4.3l-3.5,2.6c-70.5,53.4-149.7,91.8-229.8,125.4l0,200.8v19.8l0,71.3l-3.3,2.1
				c-100.1,63-200.2,103.9-297.7,121.5c-37.3,6.8-74.2,10.1-110.5,10.1c-39.9,0-79-4.1-117.2-12.2c-35.8-7.6-90.1-23.2-145.3-54.2
				c-33.1-18.6-50.8-33.8-51.5-34.5l-2.4-2.1l-0.8-89.9v-0.3l14-0.1l0.1,5.7l0.7,78.1c5.8,4.6,22,17,47.4,31.2
				c29.7,16.6,78.3,39.1,141.5,52.5c71.1,15,145.8,15.6,222,1.7c94.5-17.2,191.6-56.7,288.9-117.5l0-77.6v-19.8l0-180.9
				c-17.7,7.3-35.4,14.4-53,21.5c-4.8,1.9-9.6,3.8-14.4,5.7c-2.1,0.9-4.3,1.7-6.4,2.6c-90.2,35.9-183.5,73-266.5,125.9l-3.6,2.3
				l-3.7-2.1c-0.2-0.1-0.4-0.2-0.5-0.3c-0.7-0.4-1.4-0.8-2.1-1.2c-2.4-1.4-4.8-2.8-7.3-4.3l7.1-12.1c1.2,0.7,2.4,1.4,3.6,2.1
				c0.8,0.5,1.7,1,2.5,1.5c83.3-52.4,175.8-89.2,265.3-124.8c4.1-1.7,8.3-3.3,12.5-5c4.8-1.9,9.6-3.8,14.4-5.7
				c98.1-39.3,197.9-81.5,284-145.9c-0.7-4.8-1.1-9.6-1.2-14.5c0-1.8,0-3.6,0.1-5.4c-86.4,62.4-184.9,103.7-281.6,142.3
				c-4.8,1.9-9.6,3.8-14.4,5.7c-2.9,1.2-5.8,2.3-8.6,3.4c-90.2,35.9-183.5,73-266.5,125.9l-3.6,2.3l-3.7-2.1
				c-0.1-0.1-0.2-0.1-0.2-0.1c-4.5-2.6-9-5.2-13.2-7.8l7.2-12c0.8,0.5,1.6,1,2.5,1.5c2.3,1.4,4.7,2.8,7.1,4.2
				c83.3-52.4,175.8-89.2,265.3-124.8c4.9-2,9.8-3.9,14.7-5.9c4.8-1.9,9.6-3.8,14.4-5.7c93-37.2,187.4-77.3,270.1-136.5
				c-95.6-11.8-182.5-59.4-257.2-103.6c-49.7-29.4-98-62.4-144.7-94.2c-40.8-27.8-82.9-56.5-125.7-82.7
				c-39.9,11.4-80.8,20.6-120.5,29.6c-53.7,12.1-109.3,24.7-162.4,42.6c-46.7,15.8-90.9,34.4-131.3,55.3c-0.9,0.5-1.8,0.9-2.7,1.4
				l-6.5-12.4c4.9-2.5,9.8-5.1,14.8-7.6v0c37.7-18.8,78.4-35.5,121.1-50c53.8-18.2,109.7-30.8,163.8-43
				c40.4-9.1,82.2-18.6,122.6-30.2l2.9-0.8l2.6,1.6c44,26.8,87.2,56.2,128.9,84.7c46.5,31.7,94.7,64.5,144,93.7
				c78.1,46.2,169.7,96.1,269.4,103.5l0.4,0l8,0.5l-1.6,7.8c-1.2,6.1-1.8,12.4-1.7,18.7C1253.5,448.9,1254.1,454.4,1255.2,459.7z"/>
			<path d="M552.6,627.9l-8.2,11.4c-3.1-2.2-6.1-4.4-9.2-6.6c-24.5-17.8-49-36.1-72.8-54C362.1,503.4,258.4,425.6,137.2,383v23.2
				c125.3,42.9,231.2,122.4,333.8,199.3c16.6,12.4,33.7,25.2,50.6,37.8c1.6,1.2,3.2,2.4,4.9,3.6l-8.3,11.3c-2-1.5-4-3-6-4.4
				c-16.6-12.3-33.4-24.8-49.6-37c-50.8-38.2-102.6-77-157-111.5l0.5,62.7l0.1,15.2l0.2,27.4l0.1,11.7l-14,0.1l0-6.2l-0.2-27
				l-0.1-15.2l-0.7-77.5C240,464.8,186,437.3,128,417.9l-4.8-1.6v-45.9l2.3-2.1c0.1-0.1,0.2-0.2,0.3-0.2l0.1-0.1
				c30.3-26.5,63.4-51,98.3-72.8c2.6-1.6,5.1-3.2,7.7-4.8l7.3,12c-1.6,0.9-3.1,1.9-4.7,2.9c-31.9,19.7-62.2,41.6-90.2,65.3
				c122.2,43.4,226,121.3,326.6,196.8c25.6,19.2,52.1,39.1,78.6,58.1C550.5,626.4,551.5,627.1,552.6,627.9z"/>
		</g>
		<g id="stars_2_">
			<path d="M372.8,141.3c-91-9.6-125.1-28.2-182.6-99.3l-10.6-13.1l-1.8,16.8c-9.6,91-28.2,125.1-99.3,182.7l-13.1,10.6l16.8,1.8
				c67.9,7.2,104.1,19.3,142.1,54.6c3.4,3.2,6.8,6.5,10.3,10.1c9.6,9.9,19.5,21.3,30.3,34.6l10.6,13.1l1.8-16.8
				c2.5-23.6,5.6-43.4,10.1-60.8c1.7-6.5,3.5-12.7,5.6-18.6v0c13.9-39,37.9-66.3,83.6-103.3l13.1-10.6L372.8,141.3z M265.2,318.5
				c-50.6-59.6-87.7-79.8-165.2-89.8c59.6-50.6,79.8-87.7,89.8-165.2c50.6,59.6,87.7,79.8,165.2,89.8
				C295.4,203.9,275.2,241,265.2,318.5z"/>
			<path d="M1203.1,980.4c-44-36.5-55.4-58-60.7-114.9l-1.6-16.8l-10.8,13c-36.5,44-58,55.4-114.9,60.7l-16.8,1.6l13,10.8
				c44,36.5,55.4,58,60.7,114.9l1.6,16.8l10.8-13c36.5-44,58-55.4,114.9-60.7l16.8-1.6L1203.1,980.4z M1084.1,1032.2
				c-5.9-44.4-18.3-67.8-51.6-97.7c44.4-5.9,67.8-18.3,97.8-51.6c5.9,44.4,18.3,67.8,51.6,97.7
				C1137.5,986.5,1114.1,998.9,1084.1,1032.2z"/>
		</g>
		<g id="circles_2_">
			<path d="M1039.3,274.1c-16.8,0-30.5,13.7-30.5,30.5c0,16.8,13.7,30.5,30.5,30.5s30.5-13.7,30.5-30.5
				C1069.8,287.8,1056.1,274.1,1039.3,274.1z M1039.3,321.1c-9.1,0-16.5-7.4-16.5-16.5c0-9.1,7.4-16.5,16.5-16.5s16.5,7.4,16.5,16.5
				C1055.8,313.7,1048.4,321.1,1039.3,321.1z"/>
			<path d="M1125.2,226c-25.8,0-46.8,21-46.8,46.8c0,25.8,21,46.8,46.8,46.8c25.8,0,46.8-21,46.8-46.8C1172,247,1151,226,1125.2,226
				z M1125.2,305.7c-18.1,0-32.8-14.7-32.8-32.8c0-18.1,14.7-32.8,32.8-32.8c18.1,0,32.8,14.7,32.8,32.8
				C1158,290.9,1143.3,305.7,1125.2,305.7z"/>
		</g>
		<path id="tassel_2_" d="M975.2,745.3c1.1-3.4,1.8-6.9,1.8-10.7c0-15.8-11.1-29-26-32.2l4.7-83.1l0.9-15.4l1.3-23.5l0.9-15.1
			c0-0.1,0-0.2,0-0.4c1.3-25.9-11.7-50.1-34.1-63.2L737.3,391.8l-7.1,12.1l187.5,109.9c17.9,10.5,28.4,30,27.2,50.8l-0.4,6.2
			l-0.9,15.4l-1.3,23.5l-0.9,15.4l-4.4,77.4c-14.8,3.2-25.9,16.4-25.9,32.2c0,3.7,0.6,7.3,1.8,10.7l-63.1,63.1l9.9,9.9l60.7-60.7
			c4.4,4.6,10.2,7.9,16.6,9.3v86.4h14v-86.4c6.5-1.4,12.2-4.7,16.6-9.3l55.1,55.1l5.7,5.7l9.9-9.9L975.2,745.3z M944.1,753.6
			c-10.4,0-18.9-8.5-18.9-18.9c0-10.4,8.5-18.9,18.9-18.9c10.5,0,18.9,8.5,18.9,18.9C963,745.1,954.5,753.6,944.1,753.6z"/>
		<g id="face_2_">
			<g id="eyes_2_">
				<path d="M414.1,720.1c0,10.7-1.2,21.3-3.5,31.4c-0.6,2.9-1.4,5.8-2.2,8.6l-13.4-4c0.5-1.6,0.9-3.2,1.3-4.9
					c2.5-10,3.8-20.5,3.8-31.2c0-8.5-0.8-16.8-2.4-24.7c-5.4,27.4-29.6,48.1-58.6,48.1c-14.5,0-27.8-5.2-38.2-13.8
					c11.8-4,20.3-15.1,20.3-28.3c0-16.5-13.4-29.9-29.9-29.9c-3.9,0-7.7,0.8-11.1,2.2c4.8-28.2,29.3-49.7,58.9-49.7
					c1.1,0,2.1,0,3.2,0.1c-5.2-1.6-10.6-2.4-16.2-2.4c-40.8,0-74,44.1-74,98.4c0,54.2,33.2,98.4,74,98.4c6.8,0,13.5-1.2,20-3.6
					c3-1.1,6-2.5,8.9-4.2l6.9,12.2c-1.3,0.7-2.6,1.4-3.9,2.1c-10.1,5-20.8,7.6-31.9,7.6c-6.1,0-12-0.8-17.8-2.3
					c-4.8-1.2-9.5-3-14.1-5.2c-4.8-2.4-9.4-5.3-13.8-8.7l-13.8,21.4l-11.7-7.6l15.1-23.3c-2.3-2.4-4.5-5-6.6-7.8
					c-5.3-6.9-9.8-14.5-13.5-22.7l-27.3,12.6l-5.9-12.7l28.2-13c-3.1-9.6-5.1-19.7-6-30.2l-30.2,4.5l-2.1-13.8l31.7-4.8
					c0.2-29.2,9.1-56.7,25.1-77.5c8.5-11,18.4-19.5,29.2-25.2c4.5-2.4,9.2-4.3,13.9-5.6c6.4-1.8,13-2.8,19.7-2.8
					C374.6,607.7,414.1,658.1,414.1,720.1z"/>
				<path d="M682.5,785.7l2.1-13.8l-26.7-4c1.2-4.7,2.1-9.5,2.8-14.4c0.7-5.1,1.2-10.2,1.3-15.4c0-1.5,0.1-3,0.1-4.5
					c0-6.1-0.4-12.1-1.1-18c-0.8-6.2-2-12.4-3.5-18.3c-4.2-15.8-11.1-30.3-20.5-42.5c-16.6-21.7-39-33.6-62.8-33.6
					c-8.5,0-16.8,1.5-24.7,4.4c-4.9,1.8-9.6,4.1-14.2,7c-4.8,3-9.4,6.6-13.7,10.7c-3.3,3.1-6.5,6.6-9.5,10.4c-0.3,0.3-0.5,0.7-0.8,1
					c-16.2,21.1-25.2,49.1-25.2,78.8s8.9,57.7,25.2,78.8c16.6,21.7,39,33.6,62.8,33.6c7.5,0,14.8-1.2,21.9-3.5l11.2,23.5l12.6-6
					l-11-23c10.2-5.6,19.5-13.6,27.6-24l26.5,15.1l6.9-12.2l-25.5-14.6c3.7-6.2,6.9-12.9,9.4-19.9L682.5,785.7z M574.1,831.9
					c-40.8,0-74-44.1-74-98.4c0-54.2,33.2-98.4,74-98.4c0.9,0,1.8,0,2.8,0.1c-23,5.6-40.8,24.4-44.8,48c3.4-1.4,7.2-2.1,11.1-2.1
					c16.5,0,29.9,13.4,29.9,29.9c0,13.2-8.5,24.3-20.3,28.3c10.4,8.6,23.7,13.8,38.2,13.8c25.4,0,47.1-15.9,55.8-38.2
					c0.9,6.1,1.4,12.3,1.4,18.7C648.1,787.8,614.9,831.9,574.1,831.9z"/>
				<path class="st1" d="M648.1,733.5c0,54.2-33.2,98.4-74,98.4c-40.8,0-74-44.1-74-98.4c0-54.2,33.2-98.4,74-98.4
					c0.9,0,1.8,0,2.8,0.1c-23,5.6-40.8,24.4-44.8,48c3.4-1.4,7.2-2.1,11.1-2.1c16.5,0,29.9,13.4,29.9,29.9
					c0,13.2-8.5,24.3-20.3,28.3c10.4,8.6,23.7,13.8,38.2,13.8c25.4,0,47.1-15.9,55.8-38.2C647.6,720.9,648.1,727.1,648.1,733.5z"/>
			</g>
			<path id="nose_2_" d="M410.6,751.5c-2.9-0.3-5.8-0.4-8.8-0.4c-1.9,0-3.7,0-5.5,0.1c-33.2,1.8-58.4,19.8-58.4,42.4
				c0,7.8,3,15,8.2,21.2c3.2,3.8,7.2,7.1,11.9,10.1c11.3,7,26.7,11.3,43.8,11.3c35.8,0,63.9-18.7,63.9-42.5
				C465.6,771.8,442.1,754.3,410.6,751.5z M401.8,822.2c-27,0-49.9-13.1-49.9-28.5c0-15.5,22.9-28.5,49.9-28.5
				c27,0,49.9,13.1,49.9,28.5C451.6,809.1,428.8,822.2,401.8,822.2z"/>
			<path d="M519.4,897.3c-18.1,22.8-46.8,27-65.4,27c-10.1,0-17.3-1.2-18.1-1.4l2.5-13.8c1.9,0.3,47.1,8.2,70-20.6
				c12.3-15.5,14.6-34.9,11.7-37.9c-2.2-0.1-8.6,3.5-13.2,6.2c-12.3,7-29.1,16.4-51.4,16.4h-0.6c-31.3-0.2-55.1-11.6-69.6-21
				l7.7-11.7c12.9,8.4,34.2,18.6,62.1,18.8h0.5c18.6,0,32.9-8.1,44.5-14.6c10.6-6,20.6-11.7,28.9-4.9
				C542.2,850.8,532.2,881.2,519.4,897.3z"/>
			<polygon points="336.9,569.9 306.2,583.1 292.3,589.1 245,609.4 239.5,596.6 292.1,574 306.1,568 331.4,557.1 			"/>
		</g>
	</g>
</g>
</svg>
